# Blender 3.5.0
# www.blender.org
mtllib TitleSkyDome.mtl
o 球
v -0.000006 77.652908 -51.886009
v -0.000006 51.886009 -77.652908
v -0.000006 18.219946 -91.597847
v -0.000006 0.000000 -93.392365
v -0.000006 -18.219946 -91.597847
v -0.000006 -51.886009 -77.652908
v 3.554528 91.597847 -17.869852
v 6.972466 86.283287 -35.052979
v 10.122454 77.652908 -50.889046
v 12.883442 66.038376 -64.769463
v 15.149325 51.886009 -76.160820
v 16.833029 35.739716 -84.625381
v 17.869848 18.219946 -89.837799
v 18.219940 0.000000 -91.597847
v 17.869848 -18.219946 -89.837799
v 16.833029 -35.739716 -84.625381
v 15.149325 -51.886009 -76.160820
v 12.883442 -66.038376 -64.769463
v 10.122454 -77.652908 -50.889046
v 6.972466 -86.283287 -35.052979
v 3.554528 -91.597847 -17.869852
v 6.972464 91.597847 -16.833033
v 13.676991 86.283287 -33.019188
v 19.855915 77.652908 -47.936420
v 25.271784 66.038376 -61.011490
v 29.716469 51.886009 -71.741920
v 33.019173 35.739716 -79.715363
v 35.052971 18.219946 -84.625381
v 35.739700 0.000000 -86.283279
v 35.052971 -18.219946 -84.625381
v 33.019173 -35.739716 -79.715363
v 29.716469 -51.886009 -71.741920
v 25.271784 -66.038376 -61.011490
v 19.855915 -77.652908 -47.936420
v 13.676991 -86.283287 -33.019188
v 6.972464 -91.597847 -16.833033
v 10.122454 91.597847 -15.149328
v 19.855915 86.283287 -29.716476
v 28.826313 77.652908 -43.141632
v 36.688946 66.038376 -54.908901
v 43.141632 51.886009 -64.566025
v 47.936409 35.739716 -71.741920
v 50.889023 18.219946 -76.160820
v 51.885994 0.000000 -77.652893
v 50.889023 -18.219946 -76.160820
v 47.936409 -35.739716 -71.741920
v 43.141632 -51.886009 -64.566025
v 36.688946 -66.038376 -54.908901
v 28.826313 -77.652908 -43.141632
v 19.855915 -86.283287 -29.716476
v 10.122454 -91.597847 -15.149328
v 12.883441 91.597847 -12.883442
v 25.271784 86.283287 -25.271782
v 36.688942 77.652908 -36.688942
v 46.696167 66.038376 -46.696175
v 54.908875 51.886009 -54.908882
v 61.011478 35.739716 -61.011490
v 64.769447 18.219946 -64.769447
v 66.038353 0.000000 -66.038353
v 64.769447 -18.219946 -64.769447
v 61.011478 -35.739716 -61.011490
v 54.908875 -51.886009 -54.908882
v 46.696167 -66.038376 -46.696175
v 36.688942 -77.652908 -36.688942
v 25.271784 -86.283287 -25.271782
v 12.883441 -91.597847 -12.883442
v 15.149324 91.597847 -10.122456
v 29.716475 86.283287 -19.855913
v 43.141632 77.652908 -28.826319
v 54.908875 66.038376 -36.688950
v 64.566025 51.886009 -43.141628
v 71.741898 35.739716 -47.936428
v 76.160805 18.219946 -50.889030
v 77.652885 0.000000 -51.885994
v 76.160805 -18.219946 -50.889030
v 71.741898 -35.739716 -47.936428
v 64.566025 -51.886009 -43.141628
v 54.908875 -66.038376 -36.688950
v 43.141632 -77.652908 -28.826319
v 29.716475 -86.283287 -19.855913
v 15.149324 -91.597847 -10.122456
v -0.000006 93.392365 0.000001
v 16.833025 91.597847 -6.972470
v 33.019173 86.283287 -13.676991
v 47.936409 77.652908 -19.855909
v 61.011482 66.038376 -25.271786
v 71.741898 51.886009 -29.716469
v 79.715332 35.739716 -33.019188
v 84.625351 18.219946 -35.052963
v 86.283264 0.000000 -35.739689
v 84.625351 -18.219946 -35.052963
v 79.715332 -35.739716 -33.019188
v 71.741898 -51.886009 -29.716469
v 61.011482 -66.038376 -25.271786
v 47.936409 -77.652908 -19.855909
v 33.019173 -86.283287 -13.676991
v 16.833025 -91.597847 -6.972470
v 17.869844 91.597847 -3.554533
v 35.052971 86.283287 -6.972470
v 50.889023 77.652908 -10.122452
v 64.769447 66.038376 -12.883447
v 76.160797 51.886009 -15.149320
v 84.625351 35.739716 -16.833038
v 89.837791 18.219946 -17.869844
v 91.597839 0.000000 -18.219925
v 89.837791 -18.219946 -17.869844
v 84.625351 -35.739716 -16.833038
v 76.160797 -51.886009 -15.149320
v 64.769447 -66.038376 -12.883447
v 50.889023 -77.652908 -10.122452
v 35.052971 -86.283287 -6.972470
v 17.869844 -91.597847 -3.554533
v 18.219934 91.597847 0.000002
v 35.739693 86.283287 0.000003
v 51.885986 77.652908 0.000006
v 66.038353 66.038376 -0.000000
v 77.652870 51.886009 0.000009
v 86.283264 35.739716 -0.000003
v 91.597839 18.219946 0.000009
v 93.392319 0.000000 0.000016
v 91.597839 -18.219946 0.000009
v 86.283264 -35.739716 -0.000003
v 77.652870 -51.886009 0.000009
v 66.038353 -66.038376 -0.000000
v 51.885986 -77.652908 0.000006
v 35.739693 -86.283287 0.000003
v 18.219934 -91.597847 0.000002
v 17.869843 91.597847 3.554535
v 35.052971 86.283287 6.972474
v 50.889015 77.652908 10.122463
v 64.769447 66.038376 12.883447
v 76.160797 51.886009 15.149338
v 84.625351 35.739716 16.833031
v 89.837791 18.219946 17.869862
v 91.597809 0.000000 18.219957
v 89.837791 -18.219946 17.869862
v 84.625351 -35.739716 16.833031
v 76.160797 -51.886009 15.149338
v 64.769447 -66.038376 12.883447
v 50.889015 -77.652908 10.122463
v 35.052971 -86.283287 6.972474
v 17.869843 -91.597847 3.554535
v 16.833025 91.597847 6.972470
v 33.019173 86.283287 13.676996
v 47.936401 77.652908 19.855921
v 61.011478 66.038376 25.271786
v 71.741898 51.886009 29.716482
v 79.715332 35.739716 33.019176
v 84.625343 18.219946 35.052986
v 86.283234 0.000000 35.739716
v 84.625343 -18.219946 35.052986
v 79.715332 -35.739716 33.019176
v 71.741898 -51.886009 29.716482
v 61.011478 -66.038376 25.271786
v 47.936401 -77.652908 19.855921
v 33.019173 -86.283287 13.676996
v 16.833025 -91.597847 6.972470
v 15.149319 91.597847 10.122458
v 29.716469 86.283287 19.855921
v 43.141617 77.652908 28.826324
v 54.908875 66.038376 36.688950
v 64.565994 51.886009 43.141640
v 71.741898 35.739716 47.936420
v 76.160797 18.219946 50.889034
v 77.652847 0.000000 51.886009
v 76.160797 -18.219946 50.889034
v 71.741898 -35.739716 47.936420
v 64.565994 -51.886009 43.141640
v 54.908875 -66.038376 36.688950
v 43.141617 -77.652908 28.826324
v 29.716469 -86.283287 19.855921
v 15.149319 -91.597847 10.122458
v 12.883434 91.597847 12.883444
v 25.271774 86.283287 25.271791
v 36.688927 77.652908 36.688950
v 46.696167 66.038376 46.696175
v 54.908852 51.886009 54.908882
v 61.011478 35.739716 61.011478
v 64.769432 18.219946 64.769447
v 66.038307 0.000000 66.038353
v 64.769432 -18.219946 64.769447
v 61.011478 -35.739716 61.011478
v 54.908852 -51.886009 54.908882
v 46.696167 -66.038376 46.696175
v 36.688927 -77.652908 36.688950
v 25.271774 -86.283287 25.271791
v 12.883434 -91.597847 12.883444
v 10.122448 91.597847 15.149323
v 19.855904 86.283287 29.716482
v 28.826302 77.652908 43.141632
v 36.688942 66.038376 54.908890
v 43.141617 51.886009 64.566025
v 47.936409 35.739716 71.741920
v 50.888992 18.219946 76.160812
v 51.885948 0.000000 77.652885
v 50.888992 -18.219946 76.160812
v 47.936409 -35.739716 71.741920
v 43.141617 -51.886009 64.566025
v 36.688942 -66.038376 54.908890
v 28.826302 -77.652908 43.141632
v 19.855904 -86.283287 29.716482
v 10.122448 -91.597847 15.149323
v 6.972461 91.597847 16.833025
v 13.676981 86.283287 33.019176
v 19.855896 77.652908 47.936413
v 25.271780 66.038376 61.011490
v 29.716455 51.886009 71.741913
v 33.019173 35.739716 79.715332
v 35.052944 18.219946 84.625351
v 35.739655 0.000000 86.283257
v 35.052944 -18.219946 84.625351
v 33.019173 -35.739716 79.715332
v 29.716455 -51.886009 71.741913
v 25.271780 -66.038376 61.011490
v 19.855896 -77.652908 47.936413
v 13.676981 -86.283287 33.019176
v 6.972461 -91.597847 16.833025
v 3.554526 91.597847 17.869844
v 6.972458 86.283287 35.052975
v 10.122440 77.652908 50.889019
v 12.883439 66.038376 64.769447
v 15.149312 51.886009 76.160805
v 16.833029 35.739716 84.625351
v 17.869829 18.219946 89.837791
v 18.219900 0.000000 91.597794
v 17.869829 -18.219946 89.837791
v 16.833029 -35.739716 84.625351
v 15.149312 -51.886009 76.160805
v 12.883439 -66.038376 64.769447
v 10.122440 -77.652908 50.889019
v 6.972458 -86.283287 35.052975
v 3.554526 -91.597847 17.869844
v -0.000007 91.597847 18.219936
v -0.000011 86.283287 35.739700
v -0.000015 77.652908 51.885986
v -0.000008 66.038376 66.038353
v -0.000016 51.886009 77.652885
v -0.000004 35.739716 86.283264
v -0.000019 18.219946 91.597816
v -0.000037 0.000000 93.392296
v -0.000019 -18.219946 91.597816
v -0.000004 -35.739716 86.283264
v -0.000016 -51.886009 77.652885
v -0.000008 -66.038376 66.038353
v -0.000015 -77.652908 51.885986
v -0.000011 -86.283287 35.739700
v -0.000007 -91.597847 18.219936
v -3.554540 91.597847 17.869844
v -6.972480 86.283287 35.052975
v -10.122469 77.652908 50.889008
v -12.883451 66.038376 64.769447
v -15.149341 51.886009 76.160797
v -16.833031 35.739716 84.625351
v -17.869864 18.219946 89.837791
v -18.219971 0.000000 91.597763
v -17.869864 -18.219946 89.837791
v -16.833031 -35.739716 84.625351
v -15.149341 -51.886009 76.160797
v -12.883451 -66.038376 64.769447
v -10.122469 -77.652908 50.889008
v -6.972480 -86.283287 35.052975
v -3.554540 -91.597847 17.869844
v -6.972473 91.597847 16.833025
v -13.676999 86.283287 33.019176
v -19.855923 77.652908 47.936394
v -25.271790 66.038376 61.011478
v -29.716484 51.886009 71.741905
v -33.019180 35.739716 79.715332
v -35.052990 18.219946 84.625343
v -35.739723 0.000000 86.283211
v -35.052990 -18.219946 84.625343
v -33.019180 -35.739716 79.715332
v -29.716484 -51.886009 71.741905
v -25.271790 -66.038376 61.011478
v -19.855923 -77.652908 47.936394
v -13.676999 -86.283287 33.019176
v -6.972473 -91.597847 16.833025
v -10.122458 91.597847 15.149321
v -19.855923 86.283287 29.716473
v -28.826323 77.652908 43.141613
v -36.688957 66.038376 54.908882
v -43.141640 51.886009 64.565994
v -47.936420 35.739716 71.741913
v -50.889046 18.219946 76.160789
v -51.886017 0.000000 77.652832
v -50.889046 -18.219946 76.160789
v -47.936420 -35.739716 71.741913
v -43.141640 -51.886009 64.565994
v -36.688957 -66.038376 54.908882
v -28.826323 -77.652908 43.141613
v -19.855923 -86.283287 29.716473
v -10.122458 -91.597847 15.149321
v -12.883443 91.597847 12.883438
v -25.271790 86.283287 25.271782
v -36.688942 77.652908 36.688919
v -46.696182 66.038376 46.696171
v -54.908890 51.886009 54.908855
v -61.011482 35.739716 61.011478
v -64.769455 18.219946 64.769417
v -66.038361 0.000000 66.038300
v -64.769455 -18.219946 64.769417
v -61.011482 -35.739716 61.011478
v -54.908890 -51.886009 54.908855
v -46.696182 -66.038376 46.696171
v -36.688942 -77.652908 36.688919
v -25.271790 -86.283287 25.271782
v -12.883443 -91.597847 12.883438
v -0.000006 -93.392365 0.000001
v -15.149323 91.597847 10.122452
v -29.716482 86.283287 19.855913
v -43.141632 77.652908 28.826298
v -54.908905 66.038376 36.688946
v -64.566032 51.886009 43.141617
v -71.741920 35.739716 47.936413
v -76.160820 18.219946 50.889000
v -77.652885 0.000000 51.885941
v -76.160820 -18.219946 50.889000
v -71.741920 -35.739716 47.936413
v -64.566032 -51.886009 43.141617
v -54.908905 -66.038376 36.688946
v -43.141632 -77.652908 28.826298
v -29.716482 -86.283287 19.855913
v -15.149323 -91.597847 10.122452
v -16.833027 91.597847 6.972464
v -33.019184 86.283287 13.676988
v -47.936409 77.652908 19.855892
v -61.011497 66.038376 25.271782
v -71.741913 51.886009 29.716455
v -79.715355 35.739716 33.019176
v -84.625359 18.219946 35.052948
v -86.283249 0.000000 35.739639
v -84.625359 -18.219946 35.052948
v -79.715355 -35.739716 33.019176
v -71.741913 -51.886009 29.716455
v -61.011497 -66.038376 25.271782
v -47.936409 -77.652908 19.855892
v -33.019184 -86.283287 13.676988
v -16.833027 -91.597847 6.972464
v -17.869844 91.597847 3.554531
v -35.052975 86.283287 6.972464
v -50.889015 77.652908 10.122440
v -64.769455 66.038376 12.883444
v -76.160812 51.886009 15.149311
v -84.625359 35.739716 16.833031
v -89.837807 18.219946 17.869825
v -91.597778 0.000000 18.219891
v -89.837807 -18.219946 17.869825
v -84.625359 -35.739716 16.833031
v -76.160812 -51.886009 15.149311
v -64.769455 -66.038376 12.883444
v -50.889015 -77.652908 10.122440
v -35.052975 -86.283287 6.972464
v -17.869844 -91.597847 3.554531
v -18.219934 91.597847 -0.000001
v -35.739704 86.283287 -0.000004
v -51.885979 77.652908 -0.000013
v -66.038361 66.038376 -0.000002
v -77.652893 51.886009 -0.000014
v -86.283272 35.739716 -0.000000
v -91.597809 18.219946 -0.000024
v -93.392265 0.000000 -0.000041
v -91.597809 -18.219946 -0.000024
v -86.283272 -35.739716 -0.000000
v -77.652893 -51.886009 -0.000014
v -66.038361 -66.038376 -0.000002
v -51.885979 -77.652908 -0.000013
v -35.739704 -86.283287 -0.000004
v -18.219934 -91.597847 -0.000001
v -17.869843 91.597847 -3.554533
v -35.052971 86.283287 -6.972472
v -50.889008 77.652908 -10.122463
v -64.769447 66.038376 -12.883447
v -76.160797 51.886009 -15.149338
v -84.625359 35.739716 -16.833027
v -89.837799 18.219946 -17.869869
v -91.597755 0.000000 -18.219967
v -89.837799 -18.219946 -17.869869
v -84.625359 -35.739716 -16.833027
v -76.160797 -51.886009 -15.149338
v -64.769447 -66.038376 -12.883447
v -50.889008 -77.652908 -10.122463
v -35.052971 -86.283287 -6.972472
v -17.869843 -91.597847 -3.554533
v -16.833023 91.597847 -6.972467
v -33.019176 86.283287 -13.676991
v -47.936394 77.652908 -19.855913
v -61.011486 66.038376 -25.271782
v -71.741890 51.886009 -29.716476
v -79.715340 35.739716 -33.019169
v -84.625351 18.219946 -35.052982
v -86.283203 0.000000 -35.739716
v -84.625351 -18.219946 -35.052982
v -79.715340 -35.739716 -33.019169
v -71.741890 -51.886009 -29.716476
v -61.011486 -66.038376 -25.271782
v -47.936394 -77.652908 -19.855913
v -33.019176 -86.283287 -13.676991
v -16.833023 -91.597847 -6.972467
v -15.149323 91.597847 -10.122450
v -29.716469 86.283287 -19.855909
v -43.141602 77.652908 -28.826309
v -54.908890 66.038376 -36.688942
v -64.565994 51.886009 -43.141628
v -71.741913 35.739716 -47.936405
v -76.160789 18.219946 -50.889034
v -77.652817 0.000000 -51.885994
v -76.160789 -18.219946 -50.889034
v -71.741913 -35.739716 -47.936405
v -64.565994 -51.886009 -43.141628
v -54.908890 -66.038376 -36.688942
v -43.141602 -77.652908 -28.826309
v -29.716469 -86.283287 -19.855909
v -15.149323 -91.597847 -10.122450
v -12.883438 91.597847 -12.883434
v -25.271782 86.283287 -25.271778
v -36.688908 77.652908 -36.688931
v -46.696175 66.038376 -46.696171
v -54.908863 51.886009 -54.908875
v -61.011482 35.739716 -61.011475
v -64.769424 18.219946 -64.769440
v -66.038284 0.000000 -66.038330
v -64.769424 -18.219946 -64.769440
v -61.011482 -35.739716 -61.011475
v -54.908863 -51.886009 -54.908875
v -46.696175 -66.038376 -46.696171
v -36.688908 -77.652908 -36.688931
v -25.271782 -86.283287 -25.271778
v -12.883438 -91.597847 -12.883434
v -10.122454 91.597847 -15.149317
v -19.855911 86.283287 -29.716469
v -28.826286 77.652908 -43.141613
v -36.688942 66.038376 -54.908882
v -43.141605 51.886009 -64.565994
v -47.936417 35.739716 -71.741905
v -50.889008 18.219946 -76.160797
v -51.885933 0.000000 -77.652847
v -50.889008 -18.219946 -76.160797
v -47.936417 -35.739716 -71.741905
v -43.141605 -51.886009 -64.565994
v -36.688942 -66.038376 -54.908882
v -28.826286 -77.652908 -43.141613
v -19.855911 -86.283287 -29.716469
v -10.122454 -91.597847 -15.149317
v -6.972468 91.597847 -16.833015
v -13.676987 86.283287 -33.019169
v -19.855886 77.652908 -47.936386
v -25.271784 66.038376 -61.011478
v -29.716450 51.886009 -71.741882
v -33.019173 35.739716 -79.715324
v -35.052944 18.219946 -84.625343
v -35.739639 0.000000 -86.283211
v -35.052944 -18.219946 -84.625343
v -33.019173 -35.739716 -79.715324
v -29.716450 -51.886009 -71.741882
v -25.271784 -66.038376 -61.011478
v -19.855886 -77.652908 -47.936386
v -13.676987 -86.283287 -33.019169
v -6.972468 -91.597847 -16.833015
v -3.554537 91.597847 -17.869833
v -6.972468 86.283287 -35.052959
v -10.122433 77.652908 -50.888985
v -12.883440 66.038376 -64.769447
v -15.149303 51.886009 -76.160774
v -16.833027 35.739716 -84.625343
v -17.869823 18.219946 -89.837769
v -18.219887 0.000000 -91.597748
v -17.869823 -18.219946 -89.837769
v -16.833027 -35.739716 -84.625343
v -15.149303 -51.886009 -76.160774
v -12.883440 -66.038376 -64.769447
v -10.122433 -77.652908 -50.888985
v -6.972468 -86.283287 -35.052959
v -3.554537 -91.597847 -17.869833
v -0.000005 91.597847 -18.219923
v -0.000000 86.283287 -35.739689
v 0.000002 66.038376 -66.038353
v -0.000001 35.739716 -86.283234
v -0.000001 -35.739716 -86.283234
v 0.000002 -66.038376 -66.038353
v 0.000014 -77.652908 -51.885956
v -0.000000 -86.283287 -35.739689
v -0.000005 -91.597847 -18.219923
vn -0.0464 -0.8810 0.4709
vn -0.0865 0.4696 0.8786
vn -0.0624 -0.7715 0.6332
vn -0.0759 0.6326 0.7708
vn -0.0759 -0.6326 0.7708
vn -0.0624 0.7715 0.6332
vn -0.0865 -0.4696 0.8786
vn -0.0464 0.8810 0.4709
vn -0.0938 -0.2890 0.9527
vn -0.0286 0.9565 0.2902
vn -0.0976 -0.0975 0.9904
vn -0.0097 -0.9951 0.0980
vn -0.0097 0.9951 0.0980
vn -0.0976 0.0975 0.9904
vn -0.0286 -0.9565 0.2902
vn -0.0938 0.2890 0.9527
vn -0.2889 0.0976 0.9524
vn -0.0846 -0.9565 0.2790
vn -0.2779 0.2890 0.9161
vn -0.1374 -0.8810 0.4528
vn -0.2563 0.4696 0.8448
vn -0.1847 -0.7715 0.6088
vn -0.2248 0.6326 0.7412
vn -0.2248 -0.6326 0.7412
vn -0.1847 0.7715 0.6088
vn -0.2563 -0.4696 0.8448
vn -0.1374 0.8810 0.4528
vn -0.2779 -0.2890 0.9161
vn -0.0846 0.9565 0.2790
vn -0.2889 -0.0976 0.9524
vn -0.0286 -0.9951 0.0942
vn -0.0286 0.9951 0.0942
vn -0.2999 0.7715 0.5611
vn -0.4162 -0.4696 0.7786
vn -0.2230 0.8810 0.4173
vn -0.4513 -0.2890 0.8443
vn -0.1374 0.9565 0.2571
vn -0.4691 -0.0975 0.8777
vn -0.0464 -0.9951 0.0869
vn -0.0464 0.9951 0.0869
vn -0.4691 0.0975 0.8777
vn -0.1374 -0.9565 0.2571
vn -0.4513 0.2890 0.8443
vn -0.2230 -0.8810 0.4173
vn -0.4162 0.4696 0.7786
vn -0.2999 -0.7715 0.5611
vn -0.3651 0.6326 0.6831
vn -0.3651 -0.6326 0.6831
vn -0.6073 0.2890 0.7400
vn -0.3002 -0.8810 0.3658
vn -0.5601 0.4696 0.6825
vn -0.4036 -0.7715 0.4918
vn -0.4913 0.6326 0.5987
vn -0.4913 -0.6326 0.5987
vn -0.4036 0.7715 0.4918
vn -0.5601 -0.4696 0.6825
vn -0.3002 0.8810 0.3658
vn -0.6073 -0.2890 0.7400
vn -0.1850 0.9565 0.2254
vn -0.6314 -0.0975 0.7693
vn -0.0625 -0.9951 0.0761
vn -0.0625 0.9951 0.0761
vn -0.6314 0.0975 0.7693
vn -0.1850 -0.9565 0.2254
vn -0.3658 0.8810 0.3002
vn -0.7400 -0.2890 0.6073
vn -0.2254 0.9565 0.1850
vn -0.7693 -0.0975 0.6314
vn -0.0761 -0.9951 0.0625
vn -0.0761 0.9951 0.0625
vn -0.7693 0.0975 0.6314
vn -0.2254 -0.9565 0.1850
vn -0.7400 0.2890 0.6073
vn -0.3658 -0.8810 0.3002
vn -0.6825 0.4696 0.5601
vn -0.4918 -0.7715 0.4036
vn -0.5987 0.6326 0.4913
vn -0.5987 -0.6326 0.4913
vn -0.4918 0.7715 0.4036
vn -0.6825 -0.4696 0.5601
vn -0.4173 -0.8810 0.2230
vn -0.7786 0.4696 0.4162
vn -0.5611 -0.7715 0.2999
vn -0.6831 0.6326 0.3651
vn -0.6831 -0.6326 0.3651
vn -0.5611 0.7715 0.2999
vn -0.7786 -0.4696 0.4162
vn -0.4173 0.8810 0.2230
vn -0.8443 -0.2890 0.4513
vn -0.2571 0.9565 0.1374
vn -0.8777 -0.0975 0.4691
vn -0.0869 -0.9951 0.0464
vn -0.0869 0.9951 0.0464
vn -0.8777 0.0975 0.4691
vn -0.2571 -0.9565 0.1374
vn -0.8443 0.2890 0.4513
vn -0.9161 -0.2890 0.2779
vn -0.2790 0.9566 0.0846
vn -0.9524 -0.0975 0.2889
vn -0.0942 -0.9951 0.0286
vn -0.0942 0.9951 0.0286
vn -0.9524 0.0975 0.2889
vn -0.2790 -0.9566 0.0846
vn -0.9161 0.2890 0.2779
vn -0.4528 -0.8810 0.1374
vn -0.8448 0.4696 0.2563
vn -0.6088 -0.7715 0.1847
vn -0.7412 0.6326 0.2248
vn -0.7412 -0.6326 0.2248
vn -0.6088 0.7715 0.1847
vn -0.8448 -0.4696 0.2563
vn -0.4528 0.8810 0.1374
vn -0.8786 0.4696 0.0865
vn -0.6332 -0.7715 0.0624
vn -0.7708 0.6326 0.0759
vn -0.7708 -0.6326 0.0759
vn -0.6332 0.7715 0.0624
vn -0.8786 -0.4696 0.0865
vn -0.4709 0.8810 0.0464
vn -0.9527 -0.2890 0.0938
vn -0.2902 0.9565 0.0286
vn -0.9904 -0.0976 0.0976
vn -0.0980 -0.9951 0.0097
vn -0.0980 0.9951 0.0097
vn -0.9904 0.0976 0.0976
vn -0.2902 -0.9565 0.0286
vn -0.9527 0.2890 0.0938
vn -0.4709 -0.8810 0.0464
vn -0.2902 0.9565 -0.0286
vn -0.9904 -0.0975 -0.0976
vn -0.0980 -0.9951 -0.0097
vn -0.0980 0.9951 -0.0097
vn -0.9904 0.0975 -0.0976
vn -0.2902 -0.9565 -0.0286
vn -0.9527 0.2890 -0.0938
vn -0.4709 -0.8810 -0.0464
vn -0.8786 0.4696 -0.0865
vn -0.6332 -0.7715 -0.0624
vn -0.7708 0.6326 -0.0759
vn -0.7708 -0.6326 -0.0759
vn -0.6332 0.7715 -0.0624
vn -0.8786 -0.4696 -0.0865
vn -0.4709 0.8810 -0.0464
vn -0.9527 -0.2890 -0.0938
vn -0.6088 -0.7715 -0.1847
vn -0.7412 0.6326 -0.2248
vn -0.7412 -0.6326 -0.2248
vn -0.6088 0.7715 -0.1847
vn -0.8448 -0.4696 -0.2563
vn -0.4528 0.8810 -0.1374
vn -0.9161 -0.2890 -0.2779
vn -0.2790 0.9565 -0.0846
vn -0.9524 -0.0975 -0.2889
vn -0.0942 -0.9951 -0.0286
vn -0.0942 0.9951 -0.0286
vn -0.9524 0.0975 -0.2889
vn -0.2790 -0.9565 -0.0846
vn -0.9161 0.2890 -0.2779
vn -0.4528 -0.8810 -0.1374
vn -0.8448 0.4696 -0.2563
vn -0.8777 -0.0975 -0.4691
vn -0.0869 -0.9951 -0.0464
vn -0.0869 0.9951 -0.0464
vn -0.8777 0.0975 -0.4691
vn -0.2571 -0.9565 -0.1374
vn -0.8443 0.2890 -0.4513
vn -0.4173 -0.8810 -0.2230
vn -0.7786 0.4696 -0.4162
vn -0.5611 -0.7715 -0.2999
vn -0.6831 0.6326 -0.3651
vn -0.6831 -0.6326 -0.3651
vn -0.5611 0.7715 -0.2999
vn -0.7786 -0.4696 -0.4162
vn -0.4173 0.8810 -0.2230
vn -0.8443 -0.2890 -0.4513
vn -0.2571 0.9565 -0.1374
vn -0.5987 0.6326 -0.4913
vn -0.5987 -0.6326 -0.4913
vn -0.4918 0.7715 -0.4036
vn -0.6825 -0.4696 -0.5601
vn -0.3658 0.8810 -0.3002
vn -0.7400 -0.2890 -0.6073
vn -0.2254 0.9565 -0.1850
vn -0.7693 -0.0975 -0.6314
vn -0.0761 -0.9951 -0.0625
vn -0.0761 0.9951 -0.0625
vn -0.7693 0.0975 -0.6314
vn -0.2254 -0.9565 -0.1850
vn -0.7400 0.2890 -0.6073
vn -0.3658 -0.8810 -0.3002
vn -0.6825 0.4696 -0.5601
vn -0.4918 -0.7715 -0.4036
vn -0.0625 0.9951 -0.0761
vn -0.6314 0.0975 -0.7693
vn -0.1850 -0.9565 -0.2254
vn -0.6073 0.2890 -0.7400
vn -0.3002 -0.8810 -0.3658
vn -0.5601 0.4696 -0.6825
vn -0.4036 -0.7715 -0.4918
vn -0.4913 0.6326 -0.5987
vn -0.4913 -0.6326 -0.5987
vn -0.4036 0.7715 -0.4918
vn -0.5601 -0.4696 -0.6825
vn -0.3002 0.8810 -0.3658
vn -0.6073 -0.2890 -0.7400
vn -0.1850 0.9565 -0.2254
vn -0.6314 -0.0975 -0.7693
vn -0.0625 -0.9951 -0.0761
vn -0.2999 0.7715 -0.5611
vn -0.4162 -0.4696 -0.7786
vn -0.2230 0.8810 -0.4173
vn -0.4513 -0.2890 -0.8443
vn -0.1374 0.9565 -0.2571
vn -0.4691 -0.0975 -0.8777
vn -0.0464 -0.9951 -0.0869
vn -0.0464 0.9951 -0.0869
vn -0.4691 0.0975 -0.8777
vn -0.1374 -0.9565 -0.2571
vn -0.4513 0.2890 -0.8443
vn -0.2230 -0.8810 -0.4173
vn -0.4162 0.4696 -0.7786
vn -0.2999 -0.7715 -0.5611
vn -0.3651 0.6326 -0.6831
vn -0.3651 -0.6326 -0.6831
vn -0.0846 -0.9565 -0.2790
vn -0.2779 0.2890 -0.9161
vn -0.1374 -0.8810 -0.4528
vn -0.2563 0.4696 -0.8448
vn -0.1847 -0.7715 -0.6088
vn -0.2248 0.6326 -0.7412
vn -0.2248 -0.6326 -0.7412
vn -0.1847 0.7715 -0.6088
vn -0.2563 -0.4696 -0.8448
vn -0.1374 0.8810 -0.4528
vn -0.2779 -0.2890 -0.9161
vn -0.0846 0.9565 -0.2790
vn -0.2889 -0.0975 -0.9524
vn -0.0286 -0.9951 -0.0942
vn -0.0286 0.9951 -0.0942
vn -0.2889 0.0975 -0.9524
vn -0.0865 -0.4696 -0.8786
vn -0.0464 0.8810 -0.4709
vn -0.0938 -0.2890 -0.9527
vn -0.0286 0.9565 -0.2902
vn -0.0975 -0.0975 -0.9904
vn -0.0097 -0.9951 -0.0980
vn -0.0097 0.9951 -0.0980
vn -0.0975 0.0975 -0.9904
vn -0.0286 -0.9565 -0.2902
vn -0.0938 0.2890 -0.9527
vn -0.0464 -0.8810 -0.4709
vn -0.0865 0.4696 -0.8786
vn -0.0624 -0.7715 -0.6332
vn -0.0759 0.6326 -0.7708
vn -0.0759 -0.6326 -0.7708
vn -0.0624 0.7715 -0.6332
vn 0.0938 0.2890 -0.9527
vn 0.0464 -0.8810 -0.4709
vn 0.0865 0.4696 -0.8786
vn 0.0624 -0.7715 -0.6332
vn 0.0759 0.6326 -0.7708
vn 0.0759 -0.6326 -0.7708
vn 0.0624 0.7715 -0.6332
vn 0.0865 -0.4696 -0.8786
vn 0.0464 0.8810 -0.4709
vn 0.0938 -0.2890 -0.9527
vn 0.0286 0.9565 -0.2902
vn 0.0975 -0.0975 -0.9904
vn 0.0097 -0.9951 -0.0980
vn 0.0097 0.9951 -0.0980
vn 0.0975 0.0975 -0.9904
vn 0.0286 -0.9565 -0.2902
vn 0.1374 0.8810 -0.4528
vn 0.2779 -0.2890 -0.9161
vn 0.0846 0.9565 -0.2790
vn 0.2889 -0.0975 -0.9524
vn 0.0286 -0.9951 -0.0942
vn 0.0286 0.9951 -0.0942
vn 0.2889 0.0975 -0.9524
vn 0.0846 -0.9565 -0.2790
vn 0.2779 0.2890 -0.9161
vn 0.1374 -0.8810 -0.4528
vn 0.2563 0.4696 -0.8448
vn 0.1847 -0.7715 -0.6088
vn 0.2248 0.6326 -0.7412
vn 0.2248 -0.6326 -0.7412
vn 0.1847 0.7715 -0.6088
vn 0.2563 -0.4696 -0.8448
vn 0.2231 -0.8810 -0.4173
vn 0.4162 0.4696 -0.7786
vn 0.2999 -0.7715 -0.5611
vn 0.3651 0.6326 -0.6831
vn 0.3651 -0.6326 -0.6831
vn 0.2999 0.7715 -0.5611
vn 0.4162 -0.4696 -0.7786
vn 0.2231 0.8810 -0.4173
vn 0.4513 -0.2890 -0.8443
vn 0.1374 0.9565 -0.2571
vn 0.4691 -0.0975 -0.8777
vn 0.0464 -0.9951 -0.0869
vn 0.0464 0.9951 -0.0869
vn 0.4691 0.0975 -0.8777
vn 0.1374 -0.9565 -0.2571
vn 0.4513 0.2890 -0.8443
vn 0.6073 -0.2890 -0.7400
vn 0.1850 0.9565 -0.2254
vn 0.6314 -0.0975 -0.7693
vn 0.0625 -0.9951 -0.0761
vn 0.0625 0.9951 -0.0761
vn 0.6314 0.0975 -0.7693
vn 0.1850 -0.9565 -0.2254
vn 0.6073 0.2890 -0.7400
vn 0.3002 -0.8810 -0.3658
vn 0.5601 0.4696 -0.6825
vn 0.4036 -0.7715 -0.4918
vn 0.4913 0.6326 -0.5987
vn 0.4913 -0.6326 -0.5987
vn 0.4036 0.7715 -0.4918
vn 0.5601 -0.4696 -0.6825
vn 0.3002 0.8810 -0.3658
vn 0.6825 0.4696 -0.5601
vn 0.4918 -0.7715 -0.4036
vn 0.5987 0.6326 -0.4913
vn 0.5987 -0.6326 -0.4913
vn 0.4918 0.7715 -0.4036
vn 0.6825 -0.4696 -0.5601
vn 0.3658 0.8810 -0.3002
vn 0.7400 -0.2890 -0.6073
vn 0.2254 0.9565 -0.1850
vn 0.7693 -0.0975 -0.6314
vn 0.0761 -0.9951 -0.0625
vn 0.0761 0.9951 -0.0625
vn 0.7693 0.0975 -0.6314
vn 0.2254 -0.9565 -0.1850
vn 0.7400 0.2890 -0.6073
vn 0.3658 -0.8810 -0.3002
vn 0.2571 0.9565 -0.1374
vn 0.8777 -0.0975 -0.4691
vn 0.0869 -0.9951 -0.0464
vn 0.0869 0.9951 -0.0464
vn 0.8777 0.0975 -0.4691
vn 0.2571 -0.9565 -0.1374
vn 0.8443 0.2890 -0.4513
vn 0.4173 -0.8810 -0.2230
vn 0.7786 0.4696 -0.4162
vn 0.5611 -0.7715 -0.2999
vn 0.6831 0.6326 -0.3651
vn 0.6831 -0.6326 -0.3651
vn 0.5611 0.7715 -0.2999
vn 0.7786 -0.4696 -0.4162
vn 0.4173 0.8810 -0.2230
vn 0.8443 -0.2890 -0.4513
vn 0.7412 0.6326 -0.2248
vn 0.7412 -0.6326 -0.2248
vn 0.6088 0.7715 -0.1847
vn 0.8448 -0.4696 -0.2563
vn 0.4528 0.8810 -0.1374
vn 0.9161 -0.2890 -0.2779
vn 0.2790 0.9565 -0.0846
vn 0.9524 -0.0975 -0.2889
vn 0.0942 -0.9951 -0.0286
vn 0.0942 0.9951 -0.0286
vn 0.9524 0.0975 -0.2889
vn 0.2790 -0.9565 -0.0846
vn 0.9161 0.2890 -0.2779
vn 0.4528 -0.8810 -0.1374
vn 0.8448 0.4696 -0.2563
vn 0.6088 -0.7715 -0.1847
vn 0.0980 -0.9951 -0.0097
vn 0.0980 0.9951 -0.0097
vn 0.9904 0.0975 -0.0975
vn 0.2902 -0.9565 -0.0286
vn 0.9527 0.2890 -0.0938
vn 0.4709 -0.8810 -0.0464
vn 0.8786 0.4696 -0.0865
vn 0.6332 -0.7715 -0.0624
vn 0.7708 0.6326 -0.0759
vn 0.7708 -0.6326 -0.0759
vn 0.6332 0.7715 -0.0624
vn 0.8786 -0.4696 -0.0865
vn 0.4709 0.8810 -0.0464
vn 0.9527 -0.2890 -0.0938
vn 0.2902 0.9565 -0.0286
vn 0.9904 -0.0975 -0.0975
vn 0.7708 -0.6326 0.0759
vn 0.6332 0.7715 0.0624
vn 0.8786 -0.4696 0.0865
vn 0.4709 0.8810 0.0464
vn 0.9527 -0.2890 0.0938
vn 0.2902 0.9565 0.0286
vn 0.9904 -0.0975 0.0975
vn 0.0980 -0.9951 0.0097
vn 0.0980 0.9951 0.0097
vn 0.9904 0.0975 0.0975
vn 0.2902 -0.9565 0.0286
vn 0.9527 0.2890 0.0938
vn 0.4709 -0.8810 0.0464
vn 0.8786 0.4696 0.0865
vn 0.6332 -0.7715 0.0624
vn 0.7708 0.6326 0.0759
vn 0.9524 0.0975 0.2889
vn 0.2790 -0.9565 0.0846
vn 0.9161 0.2890 0.2779
vn 0.4528 -0.8810 0.1374
vn 0.8448 0.4696 0.2563
vn 0.6088 -0.7715 0.1847
vn 0.7412 0.6326 0.2248
vn 0.7412 -0.6326 0.2248
vn 0.6088 0.7715 0.1847
vn 0.8448 -0.4696 0.2563
vn 0.4528 0.8810 0.1374
vn 0.9161 -0.2890 0.2779
vn 0.2790 0.9565 0.0846
vn 0.9524 -0.0975 0.2889
vn 0.0942 -0.9951 0.0286
vn 0.0942 0.9951 0.0286
vn 0.5611 0.7715 0.2999
vn 0.7786 -0.4696 0.4162
vn 0.4173 0.8810 0.2231
vn 0.8443 -0.2890 0.4513
vn 0.2571 0.9565 0.1374
vn 0.8777 -0.0975 0.4691
vn 0.0869 -0.9951 0.0464
vn 0.0869 0.9951 0.0464
vn 0.8777 0.0975 0.4691
vn 0.2571 -0.9565 0.1374
vn 0.8443 0.2890 0.4513
vn 0.4173 -0.8810 0.2231
vn 0.7786 0.4696 0.4162
vn 0.5611 -0.7715 0.2999
vn 0.6831 0.6326 0.3651
vn 0.6831 -0.6326 0.3651
vn 0.2254 -0.9565 0.1850
vn 0.7400 0.2890 0.6073
vn 0.3658 -0.8810 0.3002
vn 0.6825 0.4696 0.5601
vn 0.4918 -0.7715 0.4036
vn 0.5987 0.6326 0.4913
vn 0.5987 -0.6326 0.4913
vn 0.4918 0.7715 0.4036
vn 0.6825 -0.4696 0.5601
vn 0.3658 0.8810 0.3002
vn 0.7400 -0.2890 0.6073
vn 0.2254 0.9565 0.1850
vn 0.7693 -0.0975 0.6314
vn 0.0761 -0.9951 0.0625
vn 0.0761 0.9951 0.0625
vn 0.7693 0.0975 0.6314
vn 0.5601 -0.4696 0.6825
vn 0.3002 0.8810 0.3658
vn 0.6073 -0.2890 0.7400
vn 0.1850 0.9565 0.2254
vn 0.6314 -0.0975 0.7693
vn 0.0625 -0.9951 0.0761
vn 0.0625 0.9951 0.0761
vn 0.6314 0.0975 0.7693
vn 0.1850 -0.9565 0.2254
vn 0.6073 0.2890 0.7400
vn 0.3002 -0.8810 0.3658
vn 0.5601 0.4696 0.6825
vn 0.4036 -0.7715 0.4918
vn 0.4913 0.6326 0.5987
vn 0.4913 -0.6326 0.5987
vn 0.4036 0.7715 0.4918
vn 0.4513 0.2890 0.8443
vn 0.2231 -0.8810 0.4173
vn 0.4162 0.4696 0.7786
vn 0.2999 -0.7715 0.5611
vn 0.3651 0.6326 0.6831
vn 0.3651 -0.6326 0.6831
vn 0.2999 0.7715 0.5611
vn 0.4162 -0.4696 0.7786
vn 0.2231 0.8810 0.4173
vn 0.4513 -0.2890 0.8443
vn 0.1374 0.9565 0.2571
vn 0.4691 -0.0975 0.8777
vn 0.0464 -0.9951 0.0869
vn 0.0464 0.9951 0.0869
vn 0.4691 0.0975 0.8777
vn 0.1374 -0.9565 0.2571
vn 0.1374 0.8810 0.4528
vn 0.2779 -0.2890 0.9161
vn 0.0846 0.9565 0.2790
vn 0.2889 -0.0975 0.9524
vn 0.0286 -0.9951 0.0942
vn 0.0286 0.9951 0.0942
vn 0.2889 0.0975 0.9524
vn 0.0846 -0.9565 0.2790
vn 0.2779 0.2890 0.9161
vn 0.1374 -0.8810 0.4528
vn 0.2563 0.4696 0.8448
vn 0.1847 -0.7715 0.6088
vn 0.2248 0.6326 0.7412
vn 0.2248 -0.6326 0.7412
vn 0.1847 0.7715 0.6088
vn 0.2563 -0.4696 0.8448
vn 0.0865 0.4696 0.8786
vn 0.0624 -0.7715 0.6332
vn 0.0759 0.6326 0.7708
vn 0.0759 -0.6326 0.7708
vn 0.0624 0.7715 0.6332
vn 0.0865 -0.4696 0.8786
vn 0.0464 0.8810 0.4709
vn 0.0938 -0.2890 0.9527
vn 0.0286 0.9565 0.2902
vn 0.0976 -0.0975 0.9904
vn 0.0097 -0.9951 0.0980
vn 0.0097 0.9951 0.0980
vn 0.0976 0.0975 0.9904
vn 0.0286 -0.9565 0.2902
vn 0.0938 0.2890 0.9527
vn 0.0464 -0.8810 0.4709
vn -0.0976 -0.0976 0.9904
vn -0.0976 0.0976 0.9904
vn -0.2889 0.0975 0.9524
vn -0.2889 -0.0975 0.9524
vn -0.2231 0.8810 0.4173
vn -0.2231 -0.8810 0.4173
vn -0.2790 0.9565 0.0846
vn -0.9524 -0.0976 0.2889
vn -0.9524 0.0976 0.2889
vn -0.2790 -0.9565 0.0846
vn -0.9904 -0.0975 0.0975
vn -0.9904 0.0975 0.0975
vn -0.9904 -0.0975 -0.0975
vn -0.9904 0.0975 -0.0975
vn -0.4173 -0.8810 -0.2231
vn -0.4173 0.8810 -0.2231
vn 0.0976 -0.0975 -0.9904
vn 0.0976 0.0975 -0.9904
vn 0.2230 -0.8810 -0.4173
vn 0.2230 0.8810 -0.4173
vn 0.4173 -0.8810 -0.2231
vn 0.4173 0.8810 -0.2231
vn 0.9904 -0.0975 0.0976
vn 0.9904 0.0975 0.0976
vn 0.8777 -0.0975 0.4692
vn 0.8777 0.0975 0.4692
vn 0.2254 -0.9566 0.1850
vn 0.2230 -0.8810 0.4173
vn 0.2230 0.8810 0.4173
vn 0.0976 -0.0976 0.9904
vn 0.0976 0.0976 0.9904
vt 0.750000 0.812500
vt 0.750000 0.687500
vt 0.750000 0.562500
vt 0.750000 0.500000
vt 0.750000 0.437500
vt 0.750000 0.312500
vt 0.718750 0.937500
vt 0.718750 0.875000
vt 0.718750 0.812500
vt 0.718750 0.750000
vt 0.718750 0.687500
vt 0.718750 0.625000
vt 0.718750 0.562500
vt 0.718750 0.500000
vt 0.718750 0.437500
vt 0.718750 0.375000
vt 0.718750 0.312500
vt 0.718750 0.250000
vt 0.718750 0.187500
vt 0.718750 0.125000
vt 0.718750 0.062500
vt 0.687500 0.937500
vt 0.687500 0.875000
vt 0.687500 0.812500
vt 0.687500 0.750000
vt 0.687500 0.687500
vt 0.687500 0.625000
vt 0.687500 0.562500
vt 0.687500 0.500000
vt 0.687500 0.437500
vt 0.687500 0.375000
vt 0.687500 0.312500
vt 0.687500 0.250000
vt 0.687500 0.187500
vt 0.687500 0.125000
vt 0.687500 0.062500
vt 0.656250 0.937500
vt 0.656250 0.875000
vt 0.656250 0.812500
vt 0.656250 0.750000
vt 0.656250 0.687500
vt 0.656250 0.625000
vt 0.656250 0.562500
vt 0.656250 0.500000
vt 0.656250 0.437500
vt 0.656250 0.375000
vt 0.656250 0.312500
vt 0.656250 0.250000
vt 0.656250 0.187500
vt 0.656250 0.125000
vt 0.656250 0.062500
vt 0.625000 0.937500
vt 0.625000 0.875000
vt 0.625000 0.812500
vt 0.625000 0.750000
vt 0.625000 0.687500
vt 0.625000 0.625000
vt 0.625000 0.562500
vt 0.625000 0.500000
vt 0.625000 0.437500
vt 0.625000 0.375000
vt 0.625000 0.312500
vt 0.625000 0.250000
vt 0.625000 0.187500
vt 0.625000 0.125000
vt 0.625000 0.062500
vt 0.593750 0.937500
vt 0.593750 0.875000
vt 0.593750 0.812500
vt 0.593750 0.750000
vt 0.593750 0.687500
vt 0.593750 0.625000
vt 0.593750 0.562500
vt 0.593750 0.500000
vt 0.593750 0.437500
vt 0.593750 0.375000
vt 0.593750 0.312500
vt 0.593750 0.250000
vt 0.593750 0.187500
vt 0.593750 0.125000
vt 0.593750 0.062500
vt 0.734375 1.000000
vt 0.703125 1.000000
vt 0.671875 1.000000
vt 0.640625 1.000000
vt 0.609375 1.000000
vt 0.578125 1.000000
vt 0.546875 1.000000
vt 0.515625 1.000000
vt 0.484375 1.000000
vt 0.453125 1.000000
vt 0.421875 1.000000
vt 0.390625 1.000000
vt 0.359375 1.000000
vt 0.328125 1.000000
vt 0.296875 1.000000
vt 0.265625 1.000000
vt 0.234375 1.000000
vt 0.203125 1.000000
vt 0.171875 1.000000
vt 0.140625 1.000000
vt 0.109375 1.000000
vt 0.078125 1.000000
vt 0.046875 1.000000
vt 0.015625 1.000000
vt 0.984375 1.000000
vt 0.953125 1.000000
vt 0.921875 1.000000
vt 0.890625 1.000000
vt 0.859375 1.000000
vt 0.828125 1.000000
vt 0.796875 1.000000
vt 0.765625 1.000000
vt 0.562500 0.937500
vt 0.562500 0.875000
vt 0.562500 0.812500
vt 0.562500 0.750000
vt 0.562500 0.687500
vt 0.562500 0.625000
vt 0.562500 0.562500
vt 0.562500 0.500000
vt 0.562500 0.437500
vt 0.562500 0.375000
vt 0.562500 0.312500
vt 0.562500 0.250000
vt 0.562500 0.187500
vt 0.562500 0.125000
vt 0.562500 0.062500
vt 0.531250 0.937500
vt 0.531250 0.875000
vt 0.531250 0.812500
vt 0.531250 0.750000
vt 0.531250 0.687500
vt 0.531250 0.625000
vt 0.531250 0.562500
vt 0.531250 0.500000
vt 0.531250 0.437500
vt 0.531250 0.375000
vt 0.531250 0.312500
vt 0.531250 0.250000
vt 0.531250 0.187500
vt 0.531250 0.125000
vt 0.531250 0.062500
vt 0.500000 0.937500
vt 0.500000 0.875000
vt 0.500000 0.812500
vt 0.500000 0.750000
vt 0.500000 0.687500
vt 0.500000 0.625000
vt 0.500000 0.562500
vt 0.500000 0.500000
vt 0.500000 0.437500
vt 0.500000 0.375000
vt 0.500000 0.312500
vt 0.500000 0.250000
vt 0.500000 0.187500
vt 0.500000 0.125000
vt 0.500000 0.062500
vt 0.468750 0.937500
vt 0.468750 0.875000
vt 0.468750 0.812500
vt 0.468750 0.750000
vt 0.468750 0.687500
vt 0.468750 0.625000
vt 0.468750 0.562500
vt 0.468750 0.500000
vt 0.468750 0.437500
vt 0.468750 0.375000
vt 0.468750 0.312500
vt 0.468750 0.250000
vt 0.468750 0.187500
vt 0.468750 0.125000
vt 0.468750 0.062500
vt 0.437500 0.937500
vt 0.437500 0.875000
vt 0.437500 0.812500
vt 0.437500 0.750000
vt 0.437500 0.687500
vt 0.437500 0.625000
vt 0.437500 0.562500
vt 0.437500 0.500000
vt 0.437500 0.437500
vt 0.437500 0.375000
vt 0.437500 0.312500
vt 0.437500 0.250000
vt 0.437500 0.187500
vt 0.437500 0.125000
vt 0.437500 0.062500
vt 0.406250 0.937500
vt 0.406250 0.875000
vt 0.406250 0.812500
vt 0.406250 0.750000
vt 0.406250 0.687500
vt 0.406250 0.625000
vt 0.406250 0.562500
vt 0.406250 0.500000
vt 0.406250 0.437500
vt 0.406250 0.375000
vt 0.406250 0.312500
vt 0.406250 0.250000
vt 0.406250 0.187500
vt 0.406250 0.125000
vt 0.406250 0.062500
vt 0.375000 0.937500
vt 0.375000 0.875000
vt 0.375000 0.812500
vt 0.375000 0.750000
vt 0.375000 0.687500
vt 0.375000 0.625000
vt 0.375000 0.562500
vt 0.375000 0.500000
vt 0.375000 0.437500
vt 0.375000 0.375000
vt 0.375000 0.312500
vt 0.375000 0.250000
vt 0.375000 0.187500
vt 0.375000 0.125000
vt 0.375000 0.062500
vt 0.343750 0.937500
vt 0.343750 0.875000
vt 0.343750 0.812500
vt 0.343750 0.750000
vt 0.343750 0.687500
vt 0.343750 0.625000
vt 0.343750 0.562500
vt 0.343750 0.500000
vt 0.343750 0.437500
vt 0.343750 0.375000
vt 0.343750 0.312500
vt 0.343750 0.250000
vt 0.343750 0.187500
vt 0.343750 0.125000
vt 0.343750 0.062500
vt 0.312500 0.937500
vt 0.312500 0.875000
vt 0.312500 0.812500
vt 0.312500 0.750000
vt 0.312500 0.687500
vt 0.312500 0.625000
vt 0.312500 0.562500
vt 0.312500 0.500000
vt 0.312500 0.437500
vt 0.312500 0.375000
vt 0.312500 0.312500
vt 0.312500 0.250000
vt 0.312500 0.187500
vt 0.312500 0.125000
vt 0.312500 0.062500
vt 0.281250 0.937500
vt 0.281250 0.875000
vt 0.281250 0.812500
vt 0.281250 0.750000
vt 0.281250 0.687500
vt 0.281250 0.625000
vt 0.281250 0.562500
vt 0.281250 0.500000
vt 0.281250 0.437500
vt 0.281250 0.375000
vt 0.281250 0.312500
vt 0.281250 0.250000
vt 0.281250 0.187500
vt 0.281250 0.125000
vt 0.281250 0.062500
vt 0.250000 0.937500
vt 0.250000 0.875000
vt 0.250000 0.812500
vt 0.250000 0.750000
vt 0.250000 0.687500
vt 0.250000 0.625000
vt 0.250000 0.562500
vt 0.250000 0.500000
vt 0.250000 0.437500
vt 0.250000 0.375000
vt 0.250000 0.312500
vt 0.250000 0.250000
vt 0.250000 0.187500
vt 0.250000 0.125000
vt 0.250000 0.062500
vt 0.218750 0.937500
vt 0.218750 0.875000
vt 0.218750 0.812500
vt 0.218750 0.750000
vt 0.218750 0.687500
vt 0.218750 0.625000
vt 0.218750 0.562500
vt 0.218750 0.500000
vt 0.218750 0.437500
vt 0.218750 0.375000
vt 0.218750 0.312500
vt 0.218750 0.250000
vt 0.218750 0.187500
vt 0.218750 0.125000
vt 0.218750 0.062500
vt 0.187500 0.937500
vt 0.187500 0.875000
vt 0.187500 0.812500
vt 0.187500 0.750000
vt 0.187500 0.687500
vt 0.187500 0.625000
vt 0.187500 0.562500
vt 0.187500 0.500000
vt 0.187500 0.437500
vt 0.187500 0.375000
vt 0.187500 0.312500
vt 0.187500 0.250000
vt 0.187500 0.187500
vt 0.187500 0.125000
vt 0.187500 0.062500
vt 0.156250 0.937500
vt 0.156250 0.875000
vt 0.156250 0.812500
vt 0.156250 0.750000
vt 0.156250 0.687500
vt 0.156250 0.625000
vt 0.156250 0.562500
vt 0.156250 0.500000
vt 0.156250 0.437500
vt 0.156250 0.375000
vt 0.156250 0.312500
vt 0.156250 0.250000
vt 0.156250 0.187500
vt 0.156250 0.125000
vt 0.156250 0.062500
vt 0.125000 0.937500
vt 0.125000 0.875000
vt 0.125000 0.812500
vt 0.125000 0.750000
vt 0.125000 0.687500
vt 0.125000 0.625000
vt 0.125000 0.562500
vt 0.125000 0.500000
vt 0.125000 0.437500
vt 0.125000 0.375000
vt 0.125000 0.312500
vt 0.125000 0.250000
vt 0.125000 0.187500
vt 0.125000 0.125000
vt 0.125000 0.062500
vt 0.734375 0.000000
vt 0.703125 0.000000
vt 0.671875 0.000000
vt 0.640625 0.000000
vt 0.609375 0.000000
vt 0.578125 0.000000
vt 0.546875 0.000000
vt 0.515625 0.000000
vt 0.484375 0.000000
vt 0.453125 0.000000
vt 0.421875 0.000000
vt 0.390625 0.000000
vt 0.359375 0.000000
vt 0.328125 0.000000
vt 0.296875 0.000000
vt 0.265625 0.000000
vt 0.234375 0.000000
vt 0.203125 0.000000
vt 0.171875 0.000000
vt 0.140625 0.000000
vt 0.109375 0.000000
vt 0.078125 0.000000
vt 0.046875 0.000000
vt 0.015625 0.000000
vt 0.984375 0.000000
vt 0.953125 0.000000
vt 0.921875 0.000000
vt 0.890625 0.000000
vt 0.859375 0.000000
vt 0.828125 0.000000
vt 0.796875 0.000000
vt 0.765625 0.000000
vt 0.093750 0.937500
vt 0.093750 0.875000
vt 0.093750 0.812500
vt 0.093750 0.750000
vt 0.093750 0.687500
vt 0.093750 0.625000
vt 0.093750 0.562500
vt 0.093750 0.500000
vt 0.093750 0.437500
vt 0.093750 0.375000
vt 0.093750 0.312500
vt 0.093750 0.250000
vt 0.093750 0.187500
vt 0.093750 0.125000
vt 0.093750 0.062500
vt 0.062500 0.937500
vt 0.062500 0.875000
vt 0.062500 0.812500
vt 0.062500 0.750000
vt 0.062500 0.687500
vt 0.062500 0.625000
vt 0.062500 0.562500
vt 0.062500 0.500000
vt 0.062500 0.437500
vt 0.062500 0.375000
vt 0.062500 0.312500
vt 0.062500 0.250000
vt 0.062500 0.187500
vt 0.062500 0.125000
vt 0.062500 0.062500
vt 0.031250 0.937500
vt 0.031250 0.875000
vt 0.031250 0.812500
vt 0.031250 0.750000
vt 0.031250 0.687500
vt 0.031250 0.625000
vt 0.031250 0.562500
vt 0.031250 0.500000
vt 0.031250 0.437500
vt 0.031250 0.375000
vt 0.031250 0.312500
vt 0.031250 0.250000
vt 0.031250 0.187500
vt 0.031250 0.125000
vt 0.031250 0.062500
vt 0.000000 0.937500
vt 1.000000 0.937500
vt 1.000000 0.875000
vt 0.000000 0.875000
vt 0.000000 0.812500
vt 1.000000 0.812500
vt 1.000000 0.750000
vt 0.000000 0.750000
vt 0.000000 0.687500
vt 1.000000 0.687500
vt 1.000000 0.625000
vt 0.000000 0.625000
vt 0.000000 0.562500
vt 1.000000 0.562500
vt 0.000000 0.500000
vt 1.000000 0.500000
vt 0.000000 0.437500
vt 1.000000 0.437500
vt 1.000000 0.375000
vt 0.000000 0.375000
vt 0.000000 0.312500
vt 1.000000 0.312500
vt 1.000000 0.250000
vt 0.000000 0.250000
vt 0.000000 0.187500
vt 1.000000 0.187500
vt 1.000000 0.125000
vt 0.000000 0.125000
vt 0.000000 0.062500
vt 1.000000 0.062500
vt 0.968750 0.937500
vt 0.968750 0.875000
vt 0.968750 0.812500
vt 0.968750 0.750000
vt 0.968750 0.687500
vt 0.968750 0.625000
vt 0.968750 0.562500
vt 0.968750 0.500000
vt 0.968750 0.437500
vt 0.968750 0.375000
vt 0.968750 0.312500
vt 0.968750 0.250000
vt 0.968750 0.187500
vt 0.968750 0.125000
vt 0.968750 0.062500
vt 0.937500 0.937500
vt 0.937500 0.875000
vt 0.937500 0.812500
vt 0.937500 0.750000
vt 0.937500 0.687500
vt 0.937500 0.625000
vt 0.937500 0.562500
vt 0.937500 0.500000
vt 0.937500 0.437500
vt 0.937500 0.375000
vt 0.937500 0.312500
vt 0.937500 0.250000
vt 0.937500 0.187500
vt 0.937500 0.125000
vt 0.937500 0.062500
vt 0.906250 0.937500
vt 0.906250 0.875000
vt 0.906250 0.812500
vt 0.906250 0.750000
vt 0.906250 0.687500
vt 0.906250 0.625000
vt 0.906250 0.562500
vt 0.906250 0.500000
vt 0.906250 0.437500
vt 0.906250 0.375000
vt 0.906250 0.312500
vt 0.906250 0.250000
vt 0.906250 0.187500
vt 0.906250 0.125000
vt 0.906250 0.062500
vt 0.875000 0.937500
vt 0.875000 0.875000
vt 0.875000 0.812500
vt 0.875000 0.750000
vt 0.875000 0.687500
vt 0.875000 0.625000
vt 0.875000 0.562500
vt 0.875000 0.500000
vt 0.875000 0.437500
vt 0.875000 0.375000
vt 0.875000 0.312500
vt 0.875000 0.250000
vt 0.875000 0.187500
vt 0.875000 0.125000
vt 0.875000 0.062500
vt 0.843750 0.937500
vt 0.843750 0.875000
vt 0.843750 0.812500
vt 0.843750 0.750000
vt 0.843750 0.687500
vt 0.843750 0.625000
vt 0.843750 0.562500
vt 0.843750 0.500000
vt 0.843750 0.437500
vt 0.843750 0.375000
vt 0.843750 0.312500
vt 0.843750 0.250000
vt 0.843750 0.187500
vt 0.843750 0.125000
vt 0.843750 0.062500
vt 0.812500 0.937500
vt 0.812500 0.875000
vt 0.812500 0.812500
vt 0.812500 0.750000
vt 0.812500 0.687500
vt 0.812500 0.625000
vt 0.812500 0.562500
vt 0.812500 0.500000
vt 0.812500 0.437500
vt 0.812500 0.375000
vt 0.812500 0.312500
vt 0.812500 0.250000
vt 0.812500 0.187500
vt 0.812500 0.125000
vt 0.812500 0.062500
vt 0.781250 0.937500
vt 0.781250 0.875000
vt 0.781250 0.812500
vt 0.781250 0.750000
vt 0.781250 0.687500
vt 0.781250 0.625000
vt 0.781250 0.562500
vt 0.781250 0.500000
vt 0.781250 0.437500
vt 0.781250 0.375000
vt 0.781250 0.312500
vt 0.781250 0.250000
vt 0.781250 0.187500
vt 0.781250 0.125000
vt 0.781250 0.062500
vt 0.750000 0.937500
vt 0.750000 0.875000
vt 0.750000 0.750000
vt 0.750000 0.625000
vt 0.750000 0.375000
vt 0.750000 0.250000
vt 0.750000 0.187500
vt 0.750000 0.125000
vt 0.750000 0.062500
s 0
usemtl マテリアル
f 1/1/1 8/8/1 475/552/1
f 17/17/2 478/555/2 6/6/2
f 476/553/3 9/9/3 1/1/3
f 479/556/4 17/17/4 6/6/4
f 11/11/5 476/553/5 2/2/5
f 19/19/6 479/556/6 480/557/6
f 477/554/7 11/11/7 2/2/7
f 20/20/8 480/557/8 481/558/8
f 3/3/9 12/12/9 477/554/9
f 21/21/10 481/558/10 482/559/10
f 14/14/11 3/3/11 4/4/11
f 474/551/12 7/7/12 82/82/12
f 308/339/13 21/21/13 482/559/13
f 5/5/14 14/14/14 4/4/14
f 475/552/15 7/7/15 474/551/15
f 16/16/16 5/5/16 478/555/16
f 30/30/17 14/14/17 15/15/17
f 8/8/18 22/22/18 7/7/18
f 31/31/19 15/15/19 16/16/19
f 24/24/20 8/8/20 9/9/20
f 17/17/21 31/31/21 16/16/21
f 25/25/22 9/9/22 10/10/22
f 18/18/23 32/32/23 17/17/23
f 26/26/24 10/10/24 11/11/24
f 19/19/25 33/33/25 18/18/25
f 27/27/26 11/11/26 12/12/26
f 20/20/27 34/34/27 19/19/27
f 13/13/28 27/27/28 12/12/28
f 36/36/29 20/20/29 21/21/29
f 29/29/30 13/13/30 14/14/30
f 7/7/31 22/22/31 82/83/31
f 308/340/32 36/36/32 21/21/32
f 34/34/33 48/48/33 33/33/33
f 42/42/34 26/26/34 27/27/34
f 35/35/35 49/49/35 34/34/35
f 43/43/36 27/27/36 28/28/36
f 36/36/37 50/50/37 35/35/37
f 29/29/38 43/43/38 28/28/38
f 22/22/39 37/37/39 82/84/39
f 308/341/40 51/51/40 36/36/40
f 45/45/41 29/29/41 30/30/41
f 38/38/42 22/22/42 23/23/42
f 31/31/43 45/45/43 30/30/43
f 39/39/44 23/23/44 24/24/44
f 32/32/45 46/46/45 31/31/45
f 40/40/46 24/24/46 25/25/46
f 48/48/47 32/32/47 33/33/47
f 26/26/48 40/40/48 25/25/48
f 61/61/49 45/45/49 46/46/49
f 54/54/50 38/38/50 39/39/50
f 47/47/51 61/61/51 46/46/51
f 55/55/52 39/39/52 40/40/52
f 48/48/53 62/62/53 47/47/53
f 56/56/54 40/40/54 41/41/54
f 49/49/55 63/63/55 48/48/55
f 57/57/56 41/41/56 42/42/56
f 50/50/57 64/64/57 49/49/57
f 43/43/58 57/57/58 42/42/58
f 51/51/59 65/65/59 50/50/59
f 59/59/60 43/43/60 44/44/60
f 37/37/61 52/52/61 82/85/61
f 308/342/62 66/66/62 51/51/62
f 60/60/63 44/44/63 45/45/63
f 53/53/64 37/37/64 38/38/64
f 80/80/65 64/64/65 65/65/65
f 58/58/66 72/72/66 57/57/66
f 81/81/67 65/65/67 66/66/67
f 59/59/68 73/73/68 58/58/68
f 52/52/69 67/67/69 82/86/69
f 308/343/70 81/81/70 66/66/70
f 75/75/71 59/59/71 60/60/71
f 53/53/72 67/67/72 52/52/72
f 76/76/73 60/60/73 61/61/73
f 54/54/74 68/68/74 53/53/74
f 62/62/75 76/76/75 61/61/75
f 70/70/76 54/54/76 55/55/76
f 78/78/77 62/62/77 63/63/77
f 56/56/78 70/70/78 55/55/78
f 64/64/79 78/78/79 63/63/79
f 72/72/80 56/56/80 57/57/80
f 85/116/81 68/68/81 69/69/81
f 77/77/82 92/123/82 76/76/82
f 86/117/83 69/69/83 70/70/83
f 94/125/84 77/77/84 78/78/84
f 71/71/85 86/117/85 70/70/85
f 79/79/86 94/125/86 78/78/86
f 88/119/87 71/71/87 72/72/87
f 80/80/88 95/126/88 79/79/88
f 73/73/89 88/119/89 72/72/89
f 81/81/90 96/127/90 80/80/90
f 74/74/91 89/120/91 73/73/91
f 67/67/92 83/114/92 82/87/92
f 308/344/93 97/128/93 81/81/93
f 91/122/94 74/74/94 75/75/94
f 84/115/95 67/67/95 68/68/95
f 92/123/96 75/75/96 76/76/96
f 89/120/97 103/134/97 88/119/97
f 112/143/98 96/127/98 97/128/98
f 90/121/99 104/135/99 89/120/99
f 83/114/100 98/129/100 82/88/100
f 308/345/101 112/143/101 97/128/101
f 106/137/102 90/121/102 91/122/102
f 84/115/103 98/129/103 83/114/103
f 107/138/104 91/122/104 92/123/104
f 85/116/105 99/130/105 84/115/105
f 93/124/106 107/138/106 92/123/106
f 101/132/107 85/116/107 86/117/107
f 109/140/108 93/124/108 94/125/108
f 87/118/109 101/132/109 86/117/109
f 95/126/110 109/140/110 94/125/110
f 103/134/111 87/118/111 88/119/111
f 111/142/112 95/126/112 96/127/112
f 108/139/113 122/153/113 107/138/113
f 116/147/114 100/131/114 101/132/114
f 124/155/115 108/139/115 109/140/115
f 102/133/116 116/147/116 101/132/116
f 110/141/117 124/155/117 109/140/117
f 118/149/118 102/133/118 103/134/118
f 111/142/119 125/156/119 110/141/119
f 104/135/120 118/149/120 103/134/120
f 112/143/121 126/157/121 111/142/121
f 105/136/122 119/150/122 104/135/122
f 98/129/123 113/144/123 82/89/123
f 308/346/124 127/158/124 112/143/124
f 121/152/125 105/136/125 106/137/125
f 114/145/126 98/129/126 99/130/126
f 122/153/127 106/137/127 107/138/127
f 115/146/128 99/130/128 100/131/128
f 142/173/129 126/157/129 127/158/129
f 120/151/130 134/165/130 119/150/130
f 113/144/131 128/159/131 82/90/131
f 308/347/132 142/173/132 127/158/132
f 136/167/133 120/151/133 121/152/133
f 114/145/134 128/159/134 113/144/134
f 137/168/135 121/152/135 122/153/135
f 115/146/136 129/160/136 114/145/136
f 123/154/137 137/168/137 122/153/137
f 131/162/138 115/146/138 116/147/138
f 139/170/139 123/154/139 124/155/139
f 117/148/140 131/162/140 116/147/140
f 125/156/141 139/170/141 124/155/141
f 133/164/142 117/148/142 118/149/142
f 141/172/143 125/156/143 126/157/143
f 119/150/144 133/164/144 118/149/144
f 146/177/145 130/161/145 131/162/145
f 154/185/146 138/169/146 139/170/146
f 132/163/147 146/177/147 131/162/147
f 140/171/148 154/185/148 139/170/148
f 148/179/149 132/163/149 133/164/149
f 156/187/150 140/171/150 141/172/150
f 134/165/151 148/179/151 133/164/151
f 157/188/152 141/172/152 142/173/152
f 135/166/153 149/180/153 134/165/153
f 128/159/154 143/174/154 82/91/154
f 308/348/155 157/188/155 142/173/155
f 151/182/156 135/166/156 136/167/156
f 144/175/157 128/159/157 129/160/157
f 152/183/158 136/167/158 137/168/158
f 130/161/159 144/175/159 129/160/159
f 138/169/160 152/183/160 137/168/160
f 150/181/161 164/195/161 149/180/161
f 143/174/162 158/189/162 82/92/162
f 308/349/163 172/203/163 157/188/163
f 166/197/164 150/181/164 151/182/164
f 159/190/165 143/174/165 144/175/165
f 167/198/166 151/182/166 152/183/166
f 145/176/167 159/190/167 144/175/167
f 153/184/168 167/198/168 152/183/168
f 161/192/169 145/176/169 146/177/169
f 169/200/170 153/184/170 154/185/170
f 147/178/171 161/192/171 146/177/171
f 155/186/172 169/200/172 154/185/172
f 163/194/173 147/178/173 148/179/173
f 171/202/174 155/186/174 156/187/174
f 149/180/175 163/194/175 148/179/175
f 172/203/176 156/187/176 157/188/176
f 184/215/177 168/199/177 169/200/177
f 162/193/178 176/207/178 161/192/178
f 170/201/179 184/215/179 169/200/179
f 178/209/180 162/193/180 163/194/180
f 186/217/181 170/201/181 171/202/181
f 164/195/182 178/209/182 163/194/182
f 172/203/183 186/217/183 171/202/183
f 165/196/184 179/210/184 164/195/184
f 158/189/185 173/204/185 82/93/185
f 308/350/186 187/218/186 172/203/186
f 181/212/187 165/196/187 166/197/187
f 174/205/188 158/189/188 159/190/188
f 182/213/189 166/197/189 167/198/189
f 160/191/190 174/205/190 159/190/190
f 168/199/191 182/213/191 167/198/191
f 176/207/192 160/191/192 161/192/192
f 308/351/193 202/233/193 187/218/193
f 196/227/194 180/211/194 181/212/194
f 174/205/195 188/219/195 173/204/195
f 197/228/196 181/212/196 182/213/196
f 190/221/197 174/205/197 175/206/197
f 183/214/198 197/228/198 182/213/198
f 191/222/199 175/206/199 176/207/199
f 199/230/200 183/214/200 184/215/200
f 177/208/201 191/222/201 176/207/201
f 185/216/202 199/230/202 184/215/202
f 193/224/203 177/208/203 178/209/203
f 186/217/204 200/231/204 185/216/204
f 179/210/205 193/224/205 178/209/205
f 202/233/206 186/217/206 187/218/206
f 180/211/207 194/225/207 179/210/207
f 173/204/208 188/219/208 82/94/208
f 200/231/209 214/245/209 199/230/209
f 208/239/210 192/223/210 193/224/210
f 201/232/211 215/246/211 200/231/211
f 194/225/212 208/239/212 193/224/212
f 202/233/213 216/247/213 201/232/213
f 195/226/214 209/240/214 194/225/214
f 188/219/215 203/234/215 82/95/215
f 308/352/216 217/248/216 202/233/216
f 211/242/217 195/226/217 196/227/217
f 204/235/218 188/219/218 189/220/218
f 212/243/219 196/227/219 197/228/219
f 205/236/220 189/220/220 190/221/220
f 198/229/221 212/243/221 197/228/221
f 206/237/222 190/221/222 191/222/222
f 214/245/223 198/229/223 199/230/223
f 192/223/224 206/237/224 191/222/224
f 204/235/225 218/249/225 203/234/225
f 227/258/226 211/242/226 212/243/226
f 205/236/227 219/250/227 204/235/227
f 213/244/228 227/258/228 212/243/228
f 221/252/229 205/236/229 206/237/229
f 229/260/230 213/244/230 214/245/230
f 207/238/231 221/252/231 206/237/231
f 215/246/232 229/260/232 214/245/232
f 223/254/233 207/238/233 208/239/233
f 231/262/234 215/246/234 216/247/234
f 209/240/235 223/254/235 208/239/235
f 232/263/236 216/247/236 217/248/236
f 210/241/237 224/255/237 209/240/237
f 203/234/238 218/249/238 82/96/238
f 308/353/239 232/263/239 217/248/239
f 226/257/240 210/241/240 211/242/240
f 238/269/241 222/253/241 223/254/241
f 231/262/242 245/276/242 230/261/242
f 224/255/243 238/269/243 223/254/243
f 247/278/244 231/262/244 232/263/244
f 225/256/245 239/270/245 224/255/245
f 218/249/246 233/264/246 82/97/246
f 308/354/247 247/278/247 232/263/247
f 241/272/248 225/256/248 226/257/248
f 219/250/249 233/264/249 218/249/249
f 242/273/250 226/257/250 227/258/250
f 235/266/251 219/250/251 220/251/251
f 228/259/252 242/273/252 227/258/252
f 236/267/253 220/251/253 221/252/253
f 244/275/254 228/259/254 229/260/254
f 222/253/255 236/267/255 221/252/255
f 230/261/256 244/275/256 229/260/256
f 257/288/257 241/272/257 242/273/257
f 235/266/258 249/280/258 234/265/258
f 243/274/259 257/288/259 242/273/259
f 251/282/260 235/266/260 236/267/260
f 259/290/261 243/274/261 244/275/261
f 237/268/262 251/282/262 236/267/262
f 245/276/263 259/290/263 244/275/263
f 253/284/264 237/268/264 238/269/264
f 261/292/265 245/276/265 246/277/265
f 239/270/266 253/284/266 238/269/266
f 262/293/267 246/277/267 247/278/267
f 240/271/268 254/285/268 239/270/268
f 233/264/269 248/279/269 82/98/269
f 308/355/270 262/293/270 247/278/270
f 256/287/271 240/271/271 241/272/271
f 234/265/272 248/279/272 233/264/272
f 276/307/273 260/291/273 261/292/273
f 254/285/274 268/299/274 253/284/274
f 262/293/275 276/307/275 261/292/275
f 255/286/276 269/300/276 254/285/276
f 248/279/277 263/294/277 82/99/277
f 308/356/278 277/308/278 262/293/278
f 271/302/279 255/286/279 256/287/279
f 264/295/280 248/279/280 249/280/280
f 272/303/281 256/287/281 257/288/281
f 250/281/282 264/295/282 249/280/282
f 258/289/283 272/303/283 257/288/283
f 266/297/284 250/281/284 251/282/284
f 274/305/285 258/289/285 259/290/285
f 252/283/286 266/297/286 251/282/286
f 260/291/287 274/305/287 259/290/287
f 268/299/288 252/283/288 253/284/288
f 265/296/289 279/310/289 264/295/289
f 273/304/290 287/318/290 272/303/290
f 281/312/291 265/296/291 266/297/291
f 289/320/292 273/304/292 274/305/292
f 267/298/293 281/312/293 266/297/293
f 275/306/294 289/320/294 274/305/294
f 283/314/295 267/298/295 268/299/295
f 291/322/296 275/306/296 276/307/296
f 269/300/297 283/314/297 268/299/297
f 277/308/298 291/322/298 276/307/298
f 270/301/299 284/315/299 269/300/299
f 263/294/300 278/309/300 82/100/300
f 308/357/301 292/323/301 277/308/301
f 286/317/302 270/301/302 271/302/302
f 279/310/303 263/294/303 264/295/303
f 287/318/304 271/302/304 272/303/304
f 284/315/305 298/329/305 283/314/305
f 292/323/306 306/337/306 291/322/306
f 285/316/307 299/330/307 284/315/307
f 278/309/308 293/324/308 82/101/308
f 308/358/309 307/338/309 292/323/309
f 301/332/310 285/316/310 286/317/310
f 294/325/311 278/309/311 279/310/311
f 302/333/312 286/317/312 287/318/312
f 295/326/313 279/310/313 280/311/313
f 288/319/314 302/333/314 287/318/314
f 296/327/315 280/311/315 281/312/315
f 304/335/316 288/319/316 289/320/316
f 282/313/317 296/327/317 281/312/317
f 290/321/318 304/335/318 289/320/318
f 298/329/319 282/313/319 283/314/319
f 291/322/320 305/336/320 290/321/320
f 303/334/321 318/380/321 302/333/321
f 312/374/322 295/326/322 296/327/322
f 320/382/323 303/334/323 304/335/323
f 297/328/324 312/374/324 296/327/324
f 305/336/325 320/382/325 304/335/325
f 314/376/326 297/328/326 298/329/326
f 322/384/327 305/336/327 306/337/327
f 299/330/328 314/376/328 298/329/328
f 323/385/329 306/337/329 307/338/329
f 300/331/330 315/377/330 299/330/330
f 293/324/331 309/371/331 82/102/331
f 308/359/332 323/385/332 307/338/332
f 317/379/333 300/331/333 301/332/333
f 294/325/334 309/371/334 293/324/334
f 318/380/335 301/332/335 302/333/335
f 295/326/336 310/372/336 294/325/336
f 338/400/337 322/384/337 323/385/337
f 316/378/338 330/392/338 315/377/338
f 309/371/339 324/386/339 82/103/339
f 308/360/340 338/400/340 323/385/340
f 332/394/341 316/378/341 317/379/341
f 325/387/342 309/371/342 310/372/342
f 333/395/343 317/379/343 318/380/343
f 311/373/344 325/387/344 310/372/344
f 319/381/345 333/395/345 318/380/345
f 327/389/346 311/373/346 312/374/346
f 335/397/347 319/381/347 320/382/347
f 313/375/348 327/389/348 312/374/348
f 321/383/349 335/397/349 320/382/349
f 329/391/350 313/375/350 314/376/350
f 337/399/351 321/383/351 322/384/351
f 315/377/352 329/391/352 314/376/352
f 350/412/353 334/396/353 335/397/353
f 328/390/354 342/404/354 327/389/354
f 336/398/355 350/412/355 335/397/355
f 344/406/356 328/390/356 329/391/356
f 352/414/357 336/398/357 337/399/357
f 330/392/358 344/406/358 329/391/358
f 338/400/359 352/414/359 337/399/359
f 331/393/360 345/407/360 330/392/360
f 324/386/361 339/401/361 82/104/361
f 308/361/362 353/415/362 338/400/362
f 347/409/363 331/393/363 332/394/363
f 340/402/364 324/386/364 325/387/364
f 348/410/365 332/394/365 333/395/365
f 326/388/366 340/402/366 325/387/366
f 334/396/367 348/410/367 333/395/367
f 342/404/368 326/388/368 327/389/368
f 339/401/369 354/416/369 82/105/369
f 308/362/370 368/444/370 353/415/370
f 362/432/371 346/408/371 347/409/371
f 340/402/372 354/416/372 339/401/372
f 363/435/373 347/409/373 348/410/373
f 356/420/374 340/402/374 341/403/374
f 349/411/375 363/435/375 348/410/375
f 357/423/376 341/403/376 342/404/376
f 365/439/377 349/411/377 350/412/377
f 343/405/378 357/423/378 342/404/378
f 351/413/379 365/439/379 350/412/379
f 359/427/380 343/405/380 344/406/380
f 352/414/381 366/440/381 351/413/381
f 345/407/382 359/427/382 344/406/382
f 368/444/383 352/414/383 353/415/383
f 346/408/384 360/428/384 345/407/384
f 358/425/385 372/449/385 357/422/385
f 366/441/386 380/457/386 365/438/386
f 374/451/387 358/425/387 359/426/387
f 382/459/388 366/441/388 367/442/388
f 360/429/389 374/451/389 359/426/389
f 368/445/390 382/459/390 367/442/390
f 361/431/391 375/452/391 360/429/391
f 354/417/392 369/446/392 82/106/392
f 308/363/393 383/460/393 368/445/393
f 377/454/394 361/431/394 362/433/394
f 370/447/395 354/417/395 355/418/395
f 378/455/396 362/433/396 363/434/396
f 356/421/397 370/447/397 355/418/397
f 364/437/398 378/455/398 363/434/398
f 372/449/399 356/421/399 357/422/399
f 380/457/400 364/437/400 365/438/400
f 392/469/401 376/453/401 377/454/401
f 385/462/402 369/446/402 370/447/402
f 393/470/403 377/454/403 378/455/403
f 371/448/404 385/462/404 370/447/404
f 379/456/405 393/470/405 378/455/405
f 387/464/406 371/448/406 372/449/406
f 395/472/407 379/456/407 380/457/407
f 373/450/408 387/464/408 372/449/408
f 381/458/409 395/472/409 380/457/409
f 389/466/410 373/450/410 374/451/410
f 397/474/411 381/458/411 382/459/411
f 375/452/412 389/466/412 374/451/412
f 398/475/413 382/459/413 383/460/413
f 376/453/414 390/467/414 375/452/414
f 369/446/415 384/461/415 82/107/415
f 308/364/416 398/475/416 383/460/416
f 396/473/417 410/487/417 395/472/417
f 404/481/418 388/465/418 389/466/418
f 397/474/419 411/488/419 396/473/419
f 390/467/420 404/481/420 389/466/420
f 398/475/421 412/489/421 397/474/421
f 391/468/422 405/482/422 390/467/422
f 384/461/423 399/476/423 82/108/423
f 308/365/424 413/490/424 398/475/424
f 407/484/425 391/468/425 392/469/425
f 400/477/426 384/461/426 385/462/426
f 408/485/427 392/469/427 393/470/427
f 401/478/428 385/462/428 386/463/428
f 394/471/429 408/485/429 393/470/429
f 402/479/430 386/463/430 387/464/430
f 410/487/431 394/471/431 395/472/431
f 388/465/432 402/479/432 387/464/432
f 415/492/433 399/476/433 400/477/433
f 423/500/434 407/484/434 408/485/434
f 401/478/435 415/492/435 400/477/435
f 409/486/436 423/500/436 408/485/436
f 417/494/437 401/478/437 402/479/437
f 425/502/438 409/486/438 410/487/438
f 403/480/439 417/494/439 402/479/439
f 411/488/440 425/502/440 410/487/440
f 419/496/441 403/480/441 404/481/441
f 427/504/442 411/488/442 412/489/442
f 405/482/443 419/496/443 404/481/443
f 428/505/444 412/489/444 413/490/444
f 406/483/445 420/497/445 405/482/445
f 399/476/446 414/491/446 82/109/446
f 308/366/447 428/505/447 413/490/447
f 422/499/448 406/483/448 407/484/448
f 434/511/449 418/495/449 419/496/449
f 442/519/450 426/503/450 427/504/450
f 420/497/451 434/511/451 419/496/451
f 443/520/452 427/504/452 428/505/452
f 421/498/453 435/512/453 420/497/453
f 414/491/454 429/506/454 82/110/454
f 308/367/455 443/520/455 428/505/455
f 437/514/456 421/498/456 422/499/456
f 415/492/457 429/506/457 414/491/457
f 438/515/458 422/499/458 423/500/458
f 416/493/459 430/507/459 415/492/459
f 424/501/460 438/515/460 423/500/460
f 432/509/461 416/493/461 417/494/461
f 440/517/462 424/501/462 425/502/462
f 433/510/463 417/494/463 418/495/463
f 426/503/464 440/517/464 425/502/464
f 453/530/465 437/514/465 438/515/465
f 431/508/466 445/522/466 430/507/466
f 439/516/467 453/530/467 438/515/467
f 447/524/468 431/508/468 432/509/468
f 455/532/469 439/516/469 440/517/469
f 433/510/470 447/524/470 432/509/470
f 441/518/471 455/532/471 440/517/471
f 449/526/472 433/510/472 434/511/472
f 457/534/473 441/518/473 442/519/473
f 435/512/474 449/526/474 434/511/474
f 443/520/475 457/534/475 442/519/475
f 436/513/476 450/527/476 435/512/476
f 429/506/477 444/521/477 82/111/477
f 308/368/478 458/535/478 443/520/478
f 452/529/479 436/513/479 437/514/479
f 445/522/480 429/506/480 430/507/480
f 472/549/481 456/533/481 457/534/481
f 450/527/482 464/541/482 449/526/482
f 473/550/483 457/534/483 458/535/483
f 451/528/484 465/542/484 450/527/484
f 444/521/485 459/536/485 82/112/485
f 308/369/486 473/550/486 458/535/486
f 467/544/487 451/528/487 452/529/487
f 460/537/488 444/521/488 445/522/488
f 468/545/489 452/529/489 453/530/489
f 446/523/490 460/537/490 445/522/490
f 454/531/491 468/545/491 453/530/491
f 462/539/492 446/523/492 447/524/492
f 470/547/493 454/531/493 455/532/493
f 448/525/494 462/539/494 447/524/494
f 456/533/495 470/547/495 455/532/495
f 464/541/496 448/525/496 449/526/496
f 6/6/497 468/545/497 469/546/497
f 462/539/498 1/1/498 461/538/498
f 479/556/499 469/546/499 470/547/499
f 463/540/500 476/553/500 462/539/500
f 471/548/501 479/556/501 470/547/501
f 464/541/502 2/2/502 463/540/502
f 481/558/503 471/548/503 472/549/503
f 465/542/504 477/554/504 464/541/504
f 482/559/505 472/549/505 473/550/505
f 466/543/506 3/3/506 465/542/506
f 459/536/507 474/551/507 82/113/507
f 308/370/508 482/559/508 473/550/508
f 5/5/509 466/543/509 467/544/509
f 460/537/510 474/551/510 459/536/510
f 478/555/511 467/544/511 468/545/511
f 461/538/512 475/552/512 460/537/512
f 1/1/1 9/9/1 8/8/1
f 17/17/2 16/16/2 478/555/2
f 476/553/3 10/10/3 9/9/3
f 479/556/4 18/18/4 17/17/4
f 11/11/5 10/10/5 476/553/5
f 19/19/6 18/18/6 479/556/6
f 477/554/7 12/12/7 11/11/7
f 20/20/8 19/19/8 480/557/8
f 3/3/9 13/13/9 12/12/9
f 21/21/10 20/20/10 481/558/10
f 14/14/513 13/13/513 3/3/513
f 5/5/514 15/15/514 14/14/514
f 475/552/15 8/8/15 7/7/15
f 16/16/16 15/15/16 5/5/16
f 30/30/515 29/29/515 14/14/515
f 8/8/18 23/23/18 22/22/18
f 31/31/19 30/30/19 15/15/19
f 24/24/20 23/23/20 8/8/20
f 17/17/21 32/32/21 31/31/21
f 25/25/22 24/24/22 9/9/22
f 18/18/23 33/33/23 32/32/23
f 26/26/24 25/25/24 10/10/24
f 19/19/25 34/34/25 33/33/25
f 27/27/26 26/26/26 11/11/26
f 20/20/27 35/35/27 34/34/27
f 13/13/28 28/28/28 27/27/28
f 36/36/29 35/35/29 20/20/29
f 29/29/516 28/28/516 13/13/516
f 34/34/33 49/49/33 48/48/33
f 42/42/34 41/41/34 26/26/34
f 35/35/517 50/50/517 49/49/517
f 43/43/36 42/42/36 27/27/36
f 36/36/37 51/51/37 50/50/37
f 29/29/38 44/44/38 43/43/38
f 45/45/41 44/44/41 29/29/41
f 38/38/42 37/37/42 22/22/42
f 31/31/43 46/46/43 45/45/43
f 39/39/518 38/38/518 23/23/518
f 32/32/45 47/47/45 46/46/45
f 40/40/46 39/39/46 24/24/46
f 48/48/47 47/47/47 32/32/47
f 26/26/48 41/41/48 40/40/48
f 61/61/49 60/60/49 45/45/49
f 54/54/50 53/53/50 38/38/50
f 47/47/51 62/62/51 61/61/51
f 55/55/52 54/54/52 39/39/52
f 48/48/53 63/63/53 62/62/53
f 56/56/54 55/55/54 40/40/54
f 49/49/55 64/64/55 63/63/55
f 57/57/56 56/56/56 41/41/56
f 50/50/57 65/65/57 64/64/57
f 43/43/58 58/58/58 57/57/58
f 51/51/59 66/66/59 65/65/59
f 59/59/60 58/58/60 43/43/60
f 60/60/63 59/59/63 44/44/63
f 53/53/64 52/52/64 37/37/64
f 80/80/65 79/79/65 64/64/65
f 58/58/66 73/73/66 72/72/66
f 81/81/67 80/80/67 65/65/67
f 59/59/68 74/74/68 73/73/68
f 75/75/71 74/74/71 59/59/71
f 53/53/72 68/68/72 67/67/72
f 76/76/73 75/75/73 60/60/73
f 54/54/74 69/69/74 68/68/74
f 62/62/75 77/77/75 76/76/75
f 70/70/76 69/69/76 54/54/76
f 78/78/77 77/77/77 62/62/77
f 56/56/78 71/71/78 70/70/78
f 64/64/79 79/79/79 78/78/79
f 72/72/80 71/71/80 56/56/80
f 85/116/81 84/115/81 68/68/81
f 77/77/82 93/124/82 92/123/82
f 86/117/83 85/116/83 69/69/83
f 94/125/84 93/124/84 77/77/84
f 71/71/85 87/118/85 86/117/85
f 79/79/86 95/126/86 94/125/86
f 88/119/87 87/118/87 71/71/87
f 80/80/88 96/127/88 95/126/88
f 73/73/89 89/120/89 88/119/89
f 81/81/90 97/128/90 96/127/90
f 74/74/91 90/121/91 89/120/91
f 91/122/94 90/121/94 74/74/94
f 84/115/95 83/114/95 67/67/95
f 92/123/96 91/122/96 75/75/96
f 89/120/97 104/135/97 103/134/97
f 112/143/519 111/142/519 96/127/519
f 90/121/520 105/136/520 104/135/520
f 106/137/521 105/136/521 90/121/521
f 84/115/522 99/130/522 98/129/522
f 107/138/104 106/137/104 91/122/104
f 85/116/105 100/131/105 99/130/105
f 93/124/106 108/139/106 107/138/106
f 101/132/107 100/131/107 85/116/107
f 109/140/108 108/139/108 93/124/108
f 87/118/109 102/133/109 101/132/109
f 95/126/110 110/141/110 109/140/110
f 103/134/111 102/133/111 87/118/111
f 111/142/112 110/141/112 95/126/112
f 108/139/113 123/154/113 122/153/113
f 116/147/114 115/146/114 100/131/114
f 124/155/115 123/154/115 108/139/115
f 102/133/116 117/148/116 116/147/116
f 110/141/117 125/156/117 124/155/117
f 118/149/118 117/148/118 102/133/118
f 111/142/119 126/157/119 125/156/119
f 104/135/120 119/150/120 118/149/120
f 112/143/121 127/158/121 126/157/121
f 105/136/523 120/151/523 119/150/523
f 121/152/524 120/151/524 105/136/524
f 114/145/126 113/144/126 98/129/126
f 122/153/127 121/152/127 106/137/127
f 115/146/128 114/145/128 99/130/128
f 142/173/129 141/172/129 126/157/129
f 120/151/525 135/166/525 134/165/525
f 136/167/526 135/166/526 120/151/526
f 114/145/134 129/160/134 128/159/134
f 137/168/135 136/167/135 121/152/135
f 115/146/136 130/161/136 129/160/136
f 123/154/137 138/169/137 137/168/137
f 131/162/138 130/161/138 115/146/138
f 139/170/139 138/169/139 123/154/139
f 117/148/140 132/163/140 131/162/140
f 125/156/141 140/171/141 139/170/141
f 133/164/142 132/163/142 117/148/142
f 141/172/143 140/171/143 125/156/143
f 119/150/144 134/165/144 133/164/144
f 146/177/145 145/176/145 130/161/145
f 154/185/146 153/184/146 138/169/146
f 132/163/147 147/178/147 146/177/147
f 140/171/148 155/186/148 154/185/148
f 148/179/149 147/178/149 132/163/149
f 156/187/150 155/186/150 140/171/150
f 134/165/151 149/180/151 148/179/151
f 157/188/152 156/187/152 141/172/152
f 135/166/153 150/181/153 149/180/153
f 151/182/156 150/181/156 135/166/156
f 144/175/157 143/174/157 128/159/157
f 152/183/158 151/182/158 136/167/158
f 130/161/159 145/176/159 144/175/159
f 138/169/160 153/184/160 152/183/160
f 150/181/161 165/196/161 164/195/161
f 166/197/164 165/196/164 150/181/164
f 159/190/165 158/189/165 143/174/165
f 167/198/166 166/197/166 151/182/166
f 145/176/527 160/191/527 159/190/527
f 153/184/168 168/199/168 167/198/168
f 161/192/169 160/191/169 145/176/169
f 169/200/170 168/199/170 153/184/170
f 147/178/171 162/193/171 161/192/171
f 155/186/172 170/201/172 169/200/172
f 163/194/173 162/193/173 147/178/173
f 171/202/528 170/201/528 155/186/528
f 149/180/175 164/195/175 163/194/175
f 172/203/176 171/202/176 156/187/176
f 184/215/177 183/214/177 168/199/177
f 162/193/178 177/208/178 176/207/178
f 170/201/179 185/216/179 184/215/179
f 178/209/180 177/208/180 162/193/180
f 186/217/181 185/216/181 170/201/181
f 164/195/182 179/210/182 178/209/182
f 172/203/183 187/218/183 186/217/183
f 165/196/184 180/211/184 179/210/184
f 181/212/187 180/211/187 165/196/187
f 174/205/188 173/204/188 158/189/188
f 182/213/189 181/212/189 166/197/189
f 160/191/190 175/206/190 174/205/190
f 168/199/191 183/214/191 182/213/191
f 176/207/192 175/206/192 160/191/192
f 196/227/194 195/226/194 180/211/194
f 174/205/195 189/220/195 188/219/195
f 197/228/196 196/227/196 181/212/196
f 190/221/197 189/220/197 174/205/197
f 183/214/198 198/229/198 197/228/198
f 191/222/199 190/221/199 175/206/199
f 199/230/200 198/229/200 183/214/200
f 177/208/201 192/223/201 191/222/201
f 185/216/202 200/231/202 199/230/202
f 193/224/203 192/223/203 177/208/203
f 186/217/204 201/232/204 200/231/204
f 179/210/205 194/225/205 193/224/205
f 202/233/206 201/232/206 186/217/206
f 180/211/207 195/226/207 194/225/207
f 200/231/209 215/246/209 214/245/209
f 208/239/210 207/238/210 192/223/210
f 201/232/211 216/247/211 215/246/211
f 194/225/212 209/240/212 208/239/212
f 202/233/213 217/248/213 216/247/213
f 195/226/214 210/241/214 209/240/214
f 211/242/217 210/241/217 195/226/217
f 204/235/218 203/234/218 188/219/218
f 212/243/219 211/242/219 196/227/219
f 205/236/220 204/235/220 189/220/220
f 198/229/221 213/244/221 212/243/221
f 206/237/222 205/236/222 190/221/222
f 214/245/223 213/244/223 198/229/223
f 192/223/224 207/238/224 206/237/224
f 204/235/225 219/250/225 218/249/225
f 227/258/226 226/257/226 211/242/226
f 205/236/227 220/251/227 219/250/227
f 213/244/228 228/259/228 227/258/228
f 221/252/229 220/251/229 205/236/229
f 229/260/230 228/259/230 213/244/230
f 207/238/231 222/253/231 221/252/231
f 215/246/232 230/261/232 229/260/232
f 223/254/233 222/253/233 207/238/233
f 231/262/234 230/261/234 215/246/234
f 209/240/235 224/255/235 223/254/235
f 232/263/236 231/262/236 216/247/236
f 210/241/237 225/256/237 224/255/237
f 226/257/240 225/256/240 210/241/240
f 238/269/241 237/268/241 222/253/241
f 231/262/242 246/277/242 245/276/242
f 224/255/243 239/270/243 238/269/243
f 247/278/244 246/277/244 231/262/244
f 225/256/245 240/271/245 239/270/245
f 241/272/248 240/271/248 225/256/248
f 219/250/249 234/265/249 233/264/249
f 242/273/250 241/272/250 226/257/250
f 235/266/251 234/265/251 219/250/251
f 228/259/252 243/274/252 242/273/252
f 236/267/253 235/266/253 220/251/253
f 244/275/254 243/274/254 228/259/254
f 222/253/255 237/268/255 236/267/255
f 230/261/256 245/276/256 244/275/256
f 257/288/257 256/287/257 241/272/257
f 235/266/258 250/281/258 249/280/258
f 243/274/259 258/289/259 257/288/259
f 251/282/260 250/281/260 235/266/260
f 259/290/261 258/289/261 243/274/261
f 237/268/262 252/283/262 251/282/262
f 245/276/263 260/291/263 259/290/263
f 253/284/264 252/283/264 237/268/264
f 261/292/265 260/291/265 245/276/265
f 239/270/266 254/285/266 253/284/266
f 262/293/267 261/292/267 246/277/267
f 240/271/529 255/286/529 254/285/529
f 256/287/530 255/286/530 240/271/530
f 234/265/272 249/280/272 248/279/272
f 276/307/273 275/306/273 260/291/273
f 254/285/274 269/300/274 268/299/274
f 262/293/275 277/308/275 276/307/275
f 255/286/276 270/301/276 269/300/276
f 271/302/279 270/301/279 255/286/279
f 264/295/280 263/294/280 248/279/280
f 272/303/281 271/302/281 256/287/281
f 250/281/282 265/296/282 264/295/282
f 258/289/283 273/304/283 272/303/283
f 266/297/284 265/296/284 250/281/284
f 274/305/285 273/304/285 258/289/285
f 252/283/286 267/298/286 266/297/286
f 260/291/287 275/306/287 274/305/287
f 268/299/288 267/298/288 252/283/288
f 265/296/531 280/311/531 279/310/531
f 273/304/290 288/319/290 287/318/290
f 281/312/291 280/311/291 265/296/291
f 289/320/292 288/319/292 273/304/292
f 267/298/293 282/313/293 281/312/293
f 275/306/294 290/321/294 289/320/294
f 283/314/295 282/313/295 267/298/295
f 291/322/532 290/321/532 275/306/532
f 269/300/297 284/315/297 283/314/297
f 277/308/298 292/323/298 291/322/298
f 270/301/299 285/316/299 284/315/299
f 286/317/302 285/316/302 270/301/302
f 279/310/303 278/309/303 263/294/303
f 287/318/304 286/317/304 271/302/304
f 284/315/305 299/330/305 298/329/305
f 292/323/306 307/338/306 306/337/306
f 285/316/307 300/331/307 299/330/307
f 301/332/310 300/331/310 285/316/310
f 294/325/311 293/324/311 278/309/311
f 302/333/312 301/332/312 286/317/312
f 295/326/313 294/325/313 279/310/313
f 288/319/314 303/334/314 302/333/314
f 296/327/315 295/326/315 280/311/315
f 304/335/316 303/334/316 288/319/316
f 282/313/317 297/328/317 296/327/317
f 290/321/318 305/336/318 304/335/318
f 298/329/319 297/328/319 282/313/319
f 291/322/320 306/337/320 305/336/320
f 303/334/321 319/381/321 318/380/321
f 312/374/322 311/373/322 295/326/322
f 320/382/323 319/381/323 303/334/323
f 297/328/324 313/375/324 312/374/324
f 305/336/325 321/383/325 320/382/325
f 314/376/326 313/375/326 297/328/326
f 322/384/327 321/383/327 305/336/327
f 299/330/328 315/377/328 314/376/328
f 323/385/329 322/384/329 306/337/329
f 300/331/330 316/378/330 315/377/330
f 317/379/333 316/378/333 300/331/333
f 294/325/334 310/372/334 309/371/334
f 318/380/335 317/379/335 301/332/335
f 295/326/336 311/373/336 310/372/336
f 338/400/337 337/399/337 322/384/337
f 316/378/338 331/393/338 330/392/338
f 332/394/341 331/393/341 316/378/341
f 325/387/342 324/386/342 309/371/342
f 333/395/343 332/394/343 317/379/343
f 311/373/533 326/388/533 325/387/533
f 319/381/345 334/396/345 333/395/345
f 327/389/346 326/388/346 311/373/346
f 335/397/347 334/396/347 319/381/347
f 313/375/348 328/390/348 327/389/348
f 321/383/349 336/398/349 335/397/349
f 329/391/350 328/390/350 313/375/350
f 337/399/534 336/398/534 321/383/534
f 315/377/352 330/392/352 329/391/352
f 350/412/353 349/411/353 334/396/353
f 328/390/354 343/405/354 342/404/354
f 336/398/355 351/413/355 350/412/355
f 344/406/356 343/405/356 328/390/356
f 352/414/357 351/413/357 336/398/357
f 330/392/358 345/407/358 344/406/358
f 338/400/359 353/415/359 352/414/359
f 331/393/360 346/408/360 345/407/360
f 347/409/363 346/408/363 331/393/363
f 340/402/364 339/401/364 324/386/364
f 348/410/365 347/409/365 332/394/365
f 326/388/366 341/403/366 340/402/366
f 334/396/367 349/411/367 348/410/367
f 342/404/368 341/403/368 326/388/368
f 362/432/371 361/430/371 346/408/371
f 340/402/372 355/419/372 354/416/372
f 363/435/373 362/432/373 347/409/373
f 356/420/374 355/419/374 340/402/374
f 349/411/375 364/436/375 363/435/375
f 357/423/376 356/420/376 341/403/376
f 365/439/377 364/436/377 349/411/377
f 343/405/378 358/424/378 357/423/378
f 351/413/379 366/440/379 365/439/379
f 359/427/380 358/424/380 343/405/380
f 352/414/381 367/443/381 366/440/381
f 345/407/382 360/428/382 359/427/382
f 368/444/383 367/443/383 352/414/383
f 346/408/384 361/430/384 360/428/384
f 358/425/385 373/450/385 372/449/385
f 366/441/386 381/458/386 380/457/386
f 374/451/387 373/450/387 358/425/387
f 382/459/388 381/458/388 366/441/388
f 360/429/389 375/452/389 374/451/389
f 368/445/390 383/460/390 382/459/390
f 361/431/535 376/453/535 375/452/535
f 377/454/536 376/453/536 361/431/536
f 370/447/395 369/446/395 354/417/395
f 378/455/396 377/454/396 362/433/396
f 356/421/397 371/448/397 370/447/397
f 364/437/398 379/456/398 378/455/398
f 372/449/399 371/448/399 356/421/399
f 380/457/400 379/456/400 364/437/400
f 392/469/401 391/468/401 376/453/401
f 385/462/402 384/461/402 369/446/402
f 393/470/403 392/469/403 377/454/403
f 371/448/404 386/463/404 385/462/404
f 379/456/405 394/471/405 393/470/405
f 387/464/406 386/463/406 371/448/406
f 395/472/407 394/471/407 379/456/407
f 373/450/408 388/465/408 387/464/408
f 381/458/409 396/473/409 395/472/409
f 389/466/410 388/465/410 373/450/410
f 397/474/411 396/473/411 381/458/411
f 375/452/412 390/467/412 389/466/412
f 398/475/413 397/474/413 382/459/413
f 376/453/414 391/468/414 390/467/414
f 396/473/417 411/488/417 410/487/417
f 404/481/418 403/480/418 388/465/418
f 397/474/419 412/489/419 411/488/419
f 390/467/420 405/482/420 404/481/420
f 398/475/421 413/490/421 412/489/421
f 391/468/537 406/483/537 405/482/537
f 407/484/538 406/483/538 391/468/538
f 400/477/426 399/476/426 384/461/426
f 408/485/427 407/484/427 392/469/427
f 401/478/428 400/477/428 385/462/428
f 394/471/429 409/486/429 408/485/429
f 402/479/430 401/478/430 386/463/430
f 410/487/431 409/486/431 394/471/431
f 388/465/432 403/480/432 402/479/432
f 415/492/539 414/491/539 399/476/539
f 423/500/434 422/499/434 407/484/434
f 401/478/435 416/493/435 415/492/435
f 409/486/436 424/501/436 423/500/436
f 417/494/437 416/493/437 401/478/437
f 425/502/438 424/501/438 409/486/438
f 403/480/439 418/495/439 417/494/439
f 411/488/440 426/503/440 425/502/440
f 419/496/441 418/495/441 403/480/441
f 427/504/442 426/503/442 411/488/442
f 405/482/443 420/497/443 419/496/443
f 428/505/444 427/504/444 412/489/444
f 406/483/445 421/498/445 420/497/445
f 422/499/448 421/498/448 406/483/448
f 434/511/449 433/510/449 418/495/449
f 442/519/450 441/518/450 426/503/450
f 420/497/451 435/512/451 434/511/451
f 443/520/452 442/519/452 427/504/452
f 421/498/453 436/513/453 435/512/453
f 437/514/456 436/513/456 421/498/456
f 415/492/457 430/507/457 429/506/457
f 438/515/458 437/514/458 422/499/458
f 416/493/459 431/508/459 430/507/459
f 424/501/460 439/516/460 438/515/460
f 432/509/461 431/508/461 416/493/461
f 440/517/462 439/516/462 424/501/462
f 433/510/463 432/509/463 417/494/463
f 426/503/464 441/518/464 440/517/464
f 453/530/465 452/529/465 437/514/465
f 431/508/540 446/523/540 445/522/540
f 439/516/467 454/531/467 453/530/467
f 447/524/468 446/523/468 431/508/468
f 455/532/469 454/531/469 439/516/469
f 433/510/470 448/525/470 447/524/470
f 441/518/471 456/533/471 455/532/471
f 449/526/472 448/525/472 433/510/472
f 457/534/541 456/533/541 441/518/541
f 435/512/474 450/527/474 449/526/474
f 443/520/475 458/535/475 457/534/475
f 436/513/476 451/528/476 450/527/476
f 452/529/479 451/528/479 436/513/479
f 445/522/480 444/521/480 429/506/480
f 472/549/481 471/548/481 456/533/481
f 450/527/482 465/542/482 464/541/482
f 473/550/483 472/549/483 457/534/483
f 451/528/484 466/543/484 465/542/484
f 467/544/487 466/543/487 451/528/487
f 460/537/488 459/536/488 444/521/488
f 468/545/489 467/544/489 452/529/489
f 446/523/490 461/538/490 460/537/490
f 454/531/491 469/546/491 468/545/491
f 462/539/492 461/538/492 446/523/492
f 470/547/493 469/546/493 454/531/493
f 448/525/494 463/540/494 462/539/494
f 456/533/495 471/548/495 470/547/495
f 464/541/496 463/540/496 448/525/496
f 6/6/497 478/555/497 468/545/497
f 462/539/498 476/553/498 1/1/498
f 479/556/499 6/6/499 469/546/499
f 463/540/500 2/2/500 476/553/500
f 471/548/501 480/557/501 479/556/501
f 464/541/502 477/554/502 2/2/502
f 481/558/503 480/557/503 471/548/503
f 465/542/504 3/3/504 477/554/504
f 482/559/505 481/558/505 472/549/505
f 466/543/542 4/4/542 3/3/542
f 5/5/543 4/4/543 466/543/543
f 460/537/510 475/552/510 474/551/510
f 478/555/511 5/5/511 467/544/511
f 461/538/512 1/1/512 475/552/512
